<svg xmlns="http://www.w3.org/2000/svg" xmlns:xlink="http://www.w3.org/1999/xlink" width="300" height="250" viewBox="0 0 859.47 925.25"><defs><style>.cls-1{isolation:isolate;}.cls-2{fill:#edf7ff;}.cls-3{fill:#3b2cbf;}.cls-4{fill:#43a9de;}.cls-40,.cls-5,.cls-54{fill:#d9e9ff;}.cls-6{fill:#fff;}.cls-7{fill:#e655be;}.cls-39,.cls-44,.cls-52,.cls-64,.cls-8{fill:none;stroke:#fff;stroke-linecap:round;stroke-linejoin:round;}.cls-8{stroke-width:1.25px;}.cls-18,.cls-63,.cls-9{fill:#a8c4e5;}.cls-9{opacity:0.4;}.cls-49,.cls-54,.cls-63,.cls-9{mix-blend-mode:multiply;}.cls-10,.cls-49{fill:#2c1f9c;}.cls-11{fill:#c6d2f2;}.cls-12{fill:#3b2ad1;}.cls-13{fill:#ffc2b0;}.cls-14{fill:#91accc;}.cls-15{fill:#9ebbde;}.cls-16{fill:#6f9ed9;}.cls-17{fill:#4852db;}.cls-19{fill:#e1eaf4;}.cls-20{fill:#5445d9;}.cls-21{fill:#f09a82;}.cls-22{fill:#21ded5;}.cls-23{fill:#bad4f5;}.cls-24{fill:#ebf1f7;}.cls-25{fill:#a8c9ed;}.cls-26{fill:#2964d6;}.cls-27{fill:#4a3eb5;}.cls-28{fill:#e6f0ff;}.cls-29{fill:#6899e3;}.cls-30{fill:#467de4;}.cls-31{fill:#9ec2ff;}.cls-32{fill:#e5f2ff;}.cls-33{fill:#22009c;}.cls-34{fill:#5732db;}.cls-35{fill:#c9d5f5;}.cls-36{fill:#94a6eb;}.cls-37{fill:#7aa5f0;}.cls-38{fill:#4a39e3;}.cls-39{stroke-width:13.98px;}.cls-40{opacity:0.39;}.cls-41{fill:#6c5dfa;}.cls-42{fill:#3629a6;}.cls-43{fill:url(#linear-gradient);}.cls-44{stroke-width:1.57px;}.cls-45{fill:#4432db;}.cls-46{fill:#80d3ff;}.cls-47{fill:#271c8c;}.cls-48{fill:url(#linear-gradient-2);}.cls-49{opacity:0.22;}.cls-50{fill:#8969ff;}.cls-51{fill:#ed68e0;}.cls-52{stroke-width:3.34px;}.cls-53{fill:#bf379a;}.cls-55{fill:#fd87ff;}.cls-56{fill:#de47d6;}.cls-57{fill:#6643e6;}.cls-58{fill:#bfdfff;}.cls-59{fill:#add0ff;}.cls-60{fill:#dbefff;}.cls-61{fill:#cfe3ff;}.cls-62{fill:#b6ceed;}.cls-63{opacity:0.29;}.cls-64{stroke-width:11.42px;}</style><linearGradient id="linear-gradient" x1="582.84" y1="492.26" x2="647.95" y2="379.49" gradientTransform="matrix(1.03, 0.1, -0.01, 0.93, -31.75, -21.81)" gradientUnits="userSpaceOnUse"><stop offset="0" stop-color="#4432db"/><stop offset="0.17" stop-color="#693dda"/><stop offset="0.57" stop-color="#b955d8"/><stop offset="0.85" stop-color="#ec63d7"/><stop offset="0.98" stop-color="#ff69d7"/></linearGradient><linearGradient id="linear-gradient-2" y1="581.68" x2="224.32" y2="581.68" gradientUnits="userSpaceOnUse"><stop offset="0.29" stop-color="#6959ff"/><stop offset="1" stop-color="#4f4ecc"/></linearGradient></defs><g class="cls-1"><g id="Layer_2" data-name="Layer 2"><g id="image"><path class="cls-2" d="M328.26,11.26c.23-9.72,3.53-13.18,8.81-10.25s8.3,9.88,8.07,19.6S341.6,34,336.36,31.07,328,21,328.26,11.26Zm13.58,7.52C342,10.29,340.06,5.7,337,4s-5.24.6-5.44,9.09,1.78,13.27,4.87,15S341.63,27.28,341.84,18.78Z"/><path class="cls-2" d="M348.76,22.62c.23-9.72,3.53-13.18,8.81-10.25s8.3,9.88,8.07,19.6-3.54,13.37-8.78,10.46S348.53,32.34,348.76,22.62Zm13.58,7.52c.2-8.49-1.78-13.08-4.84-14.78s-5.24.6-5.44,9.09,1.78,13.27,4.87,15S362.13,38.64,362.34,30.14Z"/><path class="cls-2" d="M369.26,34c.23-9.72,3.53-13.18,8.81-10.26s8.3,9.89,8.07,19.61-3.54,13.37-8.78,10.46S369,43.7,369.26,34Zm13.58,7.52C383,33,381.06,28.41,378,26.72s-5.23.6-5.43,9.09,1.77,13.27,4.86,15S382.64,50,382.84,41.5Z"/><path class="cls-2" d="M389.77,45.34c.23-9.72,3.53-13.18,8.8-10.26s8.3,9.89,8.07,19.61-3.54,13.37-8.78,10.46S389.54,55.06,389.77,45.34Zm13.57,7.52c.2-8.49-1.78-13.09-4.84-14.78s-5.23.6-5.43,9.09,1.77,13.27,4.86,15S403.14,61.36,403.34,52.86Z"/><path class="cls-2" d="M411.44,69l6,3.34L418,51l-4.79-2.65.06-2.41a12.49,12.49,0,0,0,5.62.95l2.6,1.44-.62,25.89,5.45,3-.07,3.09-14.85-8.23Z"/><path class="cls-2" d="M431.94,80.35l6,3.34.51-21.35-4.79-2.65.06-2.41a12.49,12.49,0,0,0,5.62.95l2.6,1.44-.61,25.89,5.44,3-.07,3.09-14.85-8.23Z"/><path class="cls-2" d="M452.44,91.71l6,3.34L459,73.7l-4.79-2.65.06-2.41a12.49,12.49,0,0,0,5.62,1l2.6,1.44-.61,25.89,5.44,3-.07,3.09L452.37,94.8Z"/><path class="cls-2" d="M471.77,90.78c.23-9.72,3.53-13.18,8.81-10.26s8.29,9.89,8.06,19.61-3.53,13.36-8.77,10.46S471.54,100.5,471.77,90.78Zm13.57,7.52c.2-8.49-1.78-13.09-4.83-14.78s-5.24.59-5.44,9.09,1.78,13.27,4.87,15S485.14,106.79,485.34,98.3Z"/><path class="cls-2" d="M492.27,102.14c.23-9.72,3.53-13.19,8.81-10.26s8.29,9.89,8.06,19.61-3.53,13.36-8.77,10.46S492,111.86,492.27,102.14Zm13.57,7.52c.2-8.49-1.78-13.09-4.83-14.78s-5.24.59-5.44,9.09,1.78,13.27,4.87,15S505.64,118.15,505.84,109.66Z"/><path class="cls-2" d="M512.77,113.5c.23-9.72,3.53-13.19,8.81-10.26s8.29,9.89,8.06,19.61-3.53,13.36-8.77,10.46S512.54,123.22,512.77,113.5ZM526.34,121c.2-8.5-1.78-13.09-4.83-14.78s-5.24.59-5.44,9.09,1.78,13.27,4.87,15S526.14,129.51,526.34,121Z"/><path class="cls-2" d="M533.27,124.86c.23-9.72,3.53-13.19,8.81-10.26s8.29,9.89,8.06,19.61-3.53,13.36-8.77,10.46S533,134.58,533.27,124.86Zm13.57,7.52c.2-8.5-1.78-13.09-4.83-14.78s-5.24.59-5.44,9.08,1.78,13.28,4.87,15S546.64,140.87,546.84,132.38Z"/><path class="cls-2" d="M555,148.51l6,3.33.5-21.34-4.78-2.65,0-2.41a12.67,12.67,0,0,0,5.62,1l2.6,1.44-.61,25.89,5.45,3-.08,3.08-14.85-8.22Z"/><path class="cls-2" d="M328.15,78.07l6,3.33.5-21.34-4.78-2.65L330,55a12.63,12.63,0,0,0,5.62,1l2.59,1.44-.61,25.89,5.45,3-.08,3.08-14.85-8.22Z"/><path class="cls-2" d="M347.48,77.14c.23-9.72,3.52-13.19,8.8-10.26s8.3,9.88,8.07,19.6S360.81,99.85,355.57,97,347.25,86.85,347.48,77.14Zm13.57,7.51c.2-8.49-1.78-13.08-4.84-14.77s-5.23.59-5.44,9.08,1.78,13.27,4.87,15S360.85,93.15,361.05,84.65Z"/><path class="cls-2" d="M368,88.49c.23-9.72,3.53-13.18,8.81-10.25s8.29,9.88,8.06,19.6-3.54,13.37-8.78,10.46S367.75,98.21,368,88.49ZM381.55,96c.2-8.49-1.78-13.08-4.84-14.78s-5.23.6-5.43,9.09,1.77,13.27,4.87,15S381.35,104.51,381.55,96Z"/><path class="cls-2" d="M389.65,112.14l6,3.34.51-21.35-4.79-2.65.06-2.4a12.63,12.63,0,0,0,5.62,1l2.6,1.44-.61,25.89,5.44,3-.07,3.09-14.85-8.23Z"/><path class="cls-2" d="M410.15,123.5l6,3.34.51-21.35-4.79-2.65.06-2.41a12.53,12.53,0,0,0,5.62,1l2.6,1.44-.61,25.89,5.44,3-.07,3.09-14.85-8.23Z"/><path class="cls-2" d="M429.48,122.57c.23-9.72,3.53-13.18,8.81-10.26s8.29,9.89,8.06,19.61-3.53,13.36-8.77,10.46S429.25,132.29,429.48,122.57Zm13.57,7.52c.2-8.49-1.78-13.09-4.83-14.78s-5.24.6-5.44,9.09,1.77,13.27,4.87,15S442.85,138.59,443.05,130.09Z"/><path class="cls-2" d="M451.15,146.22l6,3.34.5-21.35-4.79-2.65.06-2.41a12.35,12.35,0,0,0,5.62.95l2.6,1.44-.61,25.89,5.44,3-.07,3.09-14.85-8.23Z"/><path class="cls-2" d="M470.48,145.29c.23-9.72,3.53-13.18,8.81-10.26s8.29,9.89,8.06,19.61-3.53,13.36-8.77,10.46S470.25,155,470.48,145.29Zm13.57,7.52c.2-8.49-1.78-13.09-4.83-14.78s-5.24.6-5.44,9.09,1.78,13.27,4.87,15S483.85,161.3,484.05,152.81Z"/><path class="cls-2" d="M492.15,168.94l6,3.34.5-21.35-4.78-2.65.05-2.41a12.53,12.53,0,0,0,5.62.95l2.6,1.44-.61,25.89,5.44,3-.07,3.09L492.08,172Z"/><path class="cls-2" d="M511.48,168c.23-9.72,3.53-13.18,8.81-10.26s8.29,9.89,8.07,19.61-3.54,13.36-8.78,10.46S511.25,177.73,511.48,168Zm13.57,7.52c.21-8.49-1.78-13.09-4.83-14.78s-5.24.59-5.44,9.09,1.78,13.27,4.87,15S524.85,184,525.05,175.53Z"/><path class="cls-2" d="M533.16,191.66l6,3.34.5-21.35L534.9,171l.05-2.41a12.53,12.53,0,0,0,5.62.95l2.6,1.44-.61,25.89,5.45,3-.08,3.09-14.85-8.23Z"/><path class="cls-2" d="M552.48,190.73c.23-9.72,3.53-13.19,8.81-10.26s8.3,9.89,8.07,19.61-3.54,13.36-8.78,10.46S552.25,200.45,552.48,190.73Zm13.58,7.52c.2-8.5-1.78-13.09-4.84-14.78s-5.23.59-5.44,9.09,1.78,13.27,4.87,15S565.86,206.74,566.06,198.25Z"/><path class="cls-2" d="M326.86,132.58l6,3.34.51-21.35-4.79-2.65.06-2.41a12.63,12.63,0,0,0,5.62.95l2.6,1.44-.62,25.89,5.45,3-.07,3.09-14.85-8.23Z"/><path class="cls-2" d="M347.36,143.94l6,3.33.51-21.34-4.79-2.65.06-2.41a12.63,12.63,0,0,0,5.62.95l2.6,1.44-.62,25.89,5.45,3-.07,3.09L347.29,147Z"/><path class="cls-2" d="M366.69,143c.23-9.72,3.53-13.19,8.81-10.26s8.29,9.89,8.06,19.6-3.53,13.37-8.77,10.47S366.46,152.73,366.69,143Zm13.57,7.52c.2-8.5-1.78-13.09-4.83-14.78s-5.24.59-5.44,9.08,1.77,13.27,4.87,15S380.06,159,380.26,150.53Z"/><path class="cls-2" d="M388.36,166.66l6,3.33.51-21.34L390.1,146l.06-2.4a12.63,12.63,0,0,0,5.62.95l2.6,1.44-.61,25.89,5.44,3-.07,3.08-14.85-8.22Z"/><path class="cls-2" d="M407.69,165.72c.23-9.72,3.53-13.18,8.81-10.25s8.29,9.88,8.06,19.6-3.53,13.37-8.77,10.47S407.46,175.44,407.69,165.72Zm13.57,7.52c.2-8.49-1.78-13.08-4.83-14.78s-5.24.6-5.44,9.09,1.78,13.27,4.87,15S421.06,181.74,421.26,173.24Z"/><path class="cls-2" d="M428.19,177.08c.23-9.72,3.53-13.18,8.81-10.25s8.29,9.88,8.06,19.6-3.53,13.37-8.77,10.46S428,186.8,428.19,177.08Zm13.57,7.52c.2-8.49-1.78-13.08-4.83-14.78s-5.24.6-5.44,9.09,1.78,13.27,4.87,15S441.56,193.1,441.76,184.6Z"/><path class="cls-2" d="M449.86,200.73l6,3.34.5-21.35-4.78-2.65.05-2.4a12.67,12.67,0,0,0,5.62,1l2.6,1.44L459.27,206l5.44,3-.07,3.09-14.85-8.23Z"/><path class="cls-2" d="M470.36,212.09l6,3.34.5-21.35-4.78-2.65.05-2.41a12.57,12.57,0,0,0,5.62,1l2.6,1.44-.61,25.89,5.45,3-.08,3.09-14.85-8.23Z"/><path class="cls-2" d="M490.86,223.45l6,3.34.5-21.35-4.78-2.65.05-2.41a12.57,12.57,0,0,0,5.62,1l2.6,1.44-.61,25.88,5.45,3-.08,3.09-14.85-8.23Z"/><path class="cls-2" d="M510.19,222.52c.23-9.72,3.53-13.18,8.81-10.26s8.3,9.89,8.07,19.61-3.54,13.36-8.78,10.46S510,232.24,510.19,222.52ZM523.77,230c.2-8.49-1.78-13.09-4.84-14.78s-5.24.6-5.44,9.09,1.78,13.27,4.87,15S523.57,238.53,523.77,230Z"/><path class="cls-2" d="M530.69,233.88c.23-9.72,3.53-13.18,8.81-10.26s8.3,9.89,8.07,19.61-3.54,13.36-8.78,10.46S530.46,243.6,530.69,233.88Zm13.58,7.52c.2-8.49-1.78-13.09-4.84-14.78s-5.23.6-5.43,9.09,1.77,13.27,4.86,15S544.07,249.89,544.27,241.4Z"/><path class="cls-2" d="M552.37,257.53l6,3.34.51-21.35-4.79-2.65.06-2.41a12.49,12.49,0,0,0,5.62.95l2.6,1.44-.62,25.89,5.45,3-.07,3.09-14.85-8.23Z"/><path class="cls-2" d="M325.57,187.09l6,3.34.51-21.35-4.79-2.65.06-2.41A12.49,12.49,0,0,0,333,165l2.6,1.44L335,192.3l5.45,3-.07,3.09-14.85-8.23Z"/><path class="cls-2" d="M344.9,186.16c.23-9.72,3.53-13.19,8.81-10.26s8.29,9.89,8.06,19.61S358.24,208.87,353,206,344.67,195.88,344.9,186.16Zm13.57,7.52c.2-8.49-1.78-13.09-4.83-14.78s-5.24.59-5.44,9.09,1.77,13.27,4.87,15S358.27,202.17,358.47,193.68Z"/><path class="cls-2" d="M365.4,197.52c.23-9.72,3.53-13.19,8.81-10.26s8.29,9.89,8.06,19.61-3.53,13.36-8.77,10.46S365.17,207.24,365.4,197.52ZM379,205c.2-8.5-1.78-13.09-4.83-14.78s-5.24.59-5.44,9.09,1.77,13.27,4.87,15S378.77,213.53,379,205Z"/><path class="cls-2" d="M385.9,208.88c.23-9.72,3.53-13.19,8.81-10.26s8.29,9.89,8.06,19.61-3.53,13.36-8.77,10.46S385.67,218.6,385.9,208.88Zm13.57,7.52c.2-8.5-1.78-13.09-4.83-14.78s-5.24.59-5.44,9.08,1.77,13.28,4.87,15S399.27,224.89,399.47,216.4Z"/><path class="cls-2" d="M407.57,232.53l6,3.33.5-21.34-4.79-2.65.06-2.41a12.65,12.65,0,0,0,5.62.95l2.6,1.44L417,237.74l5.44,3-.07,3.08-14.85-8.22Z"/><path class="cls-2" d="M426.9,231.6c.23-9.72,3.53-13.19,8.81-10.26s8.29,9.88,8.06,19.6-3.53,13.37-8.77,10.47S426.67,241.32,426.9,231.6Zm13.57,7.52c.2-8.5-1.78-13.09-4.83-14.78s-5.24.59-5.44,9.08,1.78,13.27,4.87,15S440.27,247.61,440.47,239.12Z"/><path class="cls-2" d="M448.57,255.25l6,3.33.5-21.34-4.78-2.66.05-2.4a12.67,12.67,0,0,0,5.62.95l2.6,1.44L458,260.46l5.45,3-.08,3.09-14.85-8.23Z"/><path class="cls-2" d="M467.9,254.31c.23-9.72,3.53-13.18,8.81-10.25s8.3,9.88,8.07,19.6S481.24,277,476,274.12,467.67,264,467.9,254.31Zm13.58,7.52c.2-8.49-1.78-13.08-4.84-14.78s-5.24.6-5.44,9.09,1.78,13.27,4.87,15S481.27,270.33,481.48,261.83Z"/><path class="cls-2" d="M488.4,265.67c.23-9.72,3.53-13.18,8.81-10.25s8.3,9.88,8.07,19.6-3.54,13.37-8.78,10.46S488.17,275.39,488.4,265.67ZM502,273.19c.2-8.49-1.78-13.09-4.84-14.78s-5.23.6-5.44,9.09,1.78,13.27,4.87,15S501.78,281.69,502,273.19Z"/><path class="cls-2" d="M510.08,289.32l6,3.34.5-21.35-4.78-2.65.06-2.4a12.63,12.63,0,0,0,5.62.95l2.59,1.44-.61,25.88,5.45,3-.07,3.09L510,292.41Z"/><path class="cls-2" d="M529.41,288.39c.23-9.72,3.52-13.18,8.8-10.26s8.3,9.89,8.07,19.61-3.54,13.37-8.78,10.46S529.18,298.11,529.41,288.39ZM543,295.91c.2-8.49-1.78-13.09-4.84-14.78s-5.23.6-5.43,9.09,1.77,13.27,4.86,15S542.78,304.41,543,295.91Z"/><path class="cls-2" d="M549.91,299.75c.23-9.72,3.53-13.18,8.81-10.26s8.29,9.89,8.06,19.61-3.54,13.36-8.77,10.46S549.68,309.47,549.91,299.75Zm13.57,7.52c.2-8.49-1.78-13.09-4.83-14.78s-5.24.6-5.44,9.09,1.77,13.27,4.87,15S563.28,315.76,563.48,307.27Z"/><path class="cls-2" d="M324.28,241.6l6,3.34.51-21.35L326,220.94l.06-2.41a12.49,12.49,0,0,0,5.62.95l2.6,1.44-.61,25.89,5.44,3-.07,3.09-14.85-8.23Z"/><path class="cls-2" d="M344.78,253l6,3.34.51-21.35-4.79-2.65.06-2.41a12.49,12.49,0,0,0,5.62,1l2.6,1.44-.61,25.89,5.44,3-.07,3.09-14.85-8.23Z"/><path class="cls-2" d="M364.11,252c.23-9.72,3.53-13.18,8.81-10.26s8.29,9.89,8.06,19.61-3.53,13.36-8.77,10.46S363.88,261.75,364.11,252Zm13.57,7.52c.2-8.49-1.78-13.09-4.83-14.78s-5.24.59-5.44,9.09,1.78,13.27,4.87,15S377.48,268,377.68,259.55Z"/><path class="cls-2" d="M384.61,263.39c.23-9.72,3.53-13.19,8.81-10.26s8.29,9.89,8.06,19.61S398,286.1,392.71,283.2,384.38,273.11,384.61,263.39Zm13.57,7.52c.2-8.5-1.78-13.09-4.83-14.78s-5.24.59-5.44,9.09,1.78,13.27,4.87,15S398,279.4,398.18,270.91Z"/><path class="cls-2" d="M405.11,274.75c.23-9.72,3.53-13.19,8.81-10.26s8.29,9.89,8.06,19.61-3.53,13.36-8.77,10.46S404.88,284.47,405.11,274.75Zm13.57,7.52c.21-8.5-1.78-13.09-4.83-14.78s-5.24.59-5.44,9.09,1.78,13.27,4.87,15S418.48,290.76,418.68,282.27Z"/><path class="cls-2" d="M426.78,298.4l6,3.34.5-21.35-4.78-2.65.05-2.41a12.67,12.67,0,0,0,5.62.95l2.6,1.44-.61,25.89,5.45,3-.08,3.09-14.85-8.23Z"/><path class="cls-2" d="M446.11,297.47c.23-9.72,3.53-13.19,8.81-10.26s8.3,9.89,8.07,19.61-3.54,13.36-8.78,10.46S445.88,307.19,446.11,297.47ZM459.69,305c.2-8.5-1.78-13.09-4.84-14.78s-5.24.59-5.44,9.08,1.78,13.27,4.87,15S459.49,313.48,459.69,305Z"/><path class="cls-2" d="M467.79,321.12l6,3.33.5-21.34-4.78-2.66.06-2.4a12.63,12.63,0,0,0,5.62.95l2.59,1.44-.61,25.89,5.45,3-.08,3.08-14.85-8.22Z"/><path class="cls-2" d="M488.29,332.48l6,3.33.51-21.34L490,311.81l.06-2.4a12.63,12.63,0,0,0,5.62.95l2.6,1.44-.62,25.89,5.45,3-.07,3.09-14.86-8.23Z"/><path class="cls-2" d="M508.79,343.84l6,3.33.51-21.35-4.79-2.65.06-2.4a12.63,12.63,0,0,0,5.62,1l2.6,1.44-.62,25.89,5.45,3-.07,3.09-14.85-8.23Z"/><path class="cls-2" d="M529.29,355.19l6,3.34.51-21.35L531,334.53l.06-2.4a12.63,12.63,0,0,0,5.62.95l2.6,1.44-.61,25.89,5.44,3-.07,3.09-14.85-8.23Z"/><path class="cls-2" d="M548.62,354.26c.23-9.72,3.53-13.18,8.81-10.26s8.29,9.89,8.06,19.61S562,377,556.72,374.07,548.39,364,548.62,354.26Zm13.57,7.52c.2-8.49-1.78-13.09-4.83-14.78s-5.24.6-5.44,9.09,1.77,13.27,4.87,15S562,370.28,562.19,361.78Z"/><path class="cls-2" d="M328.15,301.83l6,3.33.5-21.35-4.78-2.65.06-2.4a12.63,12.63,0,0,0,5.62.95l2.59,1.44L337.55,307l5.45,3-.08,3.09-14.85-8.23Z"/><path class="cls-2" d="M347.48,300.89c.23-9.72,3.52-13.18,8.8-10.25s8.3,9.88,8.07,19.6-3.54,13.37-8.78,10.46S347.25,310.61,347.48,300.89Zm13.57,7.52c.2-8.49-1.78-13.09-4.84-14.78s-5.23.6-5.44,9.09,1.78,13.27,4.87,15S360.85,316.91,361.05,308.41Z"/><path class="cls-2" d="M368,312.25c.23-9.72,3.53-13.18,8.81-10.26s8.29,9.89,8.06,19.61-3.54,13.37-8.78,10.46S367.75,322,368,312.25Zm13.57,7.52c.2-8.49-1.78-13.09-4.84-14.78s-5.23.6-5.43,9.09,1.77,13.27,4.87,15S381.35,328.27,381.55,319.77Z"/><path class="cls-2" d="M389.65,335.9l6,3.34.51-21.35-4.79-2.65.06-2.41a12.53,12.53,0,0,0,5.62,1l2.6,1.44-.61,25.88,5.44,3-.07,3.09L389.58,339Z"/><path class="cls-2" d="M410.15,347.26l6,3.34.51-21.35-4.79-2.65.06-2.41a12.35,12.35,0,0,0,5.62.95l2.6,1.44-.61,25.89,5.44,3-.07,3.09-14.85-8.23Z"/><path class="cls-2" d="M429.48,346.33c.23-9.72,3.53-13.18,8.81-10.26s8.29,9.89,8.06,19.61-3.53,13.36-8.77,10.46S429.25,356.05,429.48,346.33Zm13.57,7.52c.2-8.49-1.78-13.09-4.83-14.78s-5.24.6-5.44,9.09,1.77,13.27,4.87,15S442.85,362.34,443.05,353.85Z"/><path class="cls-2" d="M451.15,370l6,3.34.5-21.35-4.79-2.65.06-2.41a12.49,12.49,0,0,0,5.62.95l2.6,1.44-.61,25.89,5.44,3-.07,3.09-14.85-8.23Z"/><path class="cls-2" d="M470.48,369.05c.23-9.72,3.53-13.18,8.81-10.26s8.29,9.89,8.06,19.61-3.53,13.36-8.77,10.46S470.25,378.77,470.48,369.05Zm13.57,7.52c.2-8.49-1.78-13.09-4.83-14.78s-5.24.59-5.44,9.09,1.78,13.27,4.87,15S483.85,385.06,484.05,376.57Z"/><path class="cls-2" d="M492.15,392.7l6,3.34.5-21.35L493.9,372l.05-2.41a12.67,12.67,0,0,0,5.62.95l2.6,1.44-.61,25.89,5.44,3-.07,3.09-14.85-8.23Z"/><path class="cls-2" d="M511.48,391.77c.23-9.72,3.53-13.19,8.81-10.26s8.29,9.89,8.07,19.61-3.54,13.36-8.78,10.46S511.25,401.49,511.48,391.77Zm13.57,7.52c.21-8.5-1.78-13.09-4.83-14.78s-5.24.59-5.44,9.09,1.78,13.27,4.87,15S524.85,407.78,525.05,399.29Z"/><path class="cls-2" d="M533.16,415.42l6,3.33.5-21.34-4.78-2.65.05-2.41a12.67,12.67,0,0,0,5.62.95l2.6,1.44-.61,25.89,5.45,3-.08,3.08-14.85-8.22Z"/><path class="cls-2" d="M552.48,414.49c.23-9.72,3.53-13.19,8.81-10.26s8.3,9.88,8.07,19.6-3.54,13.37-8.78,10.47S552.25,424.21,552.48,414.49ZM566.06,422c.2-8.5-1.78-13.09-4.84-14.78s-5.23.59-5.44,9.08,1.78,13.27,4.87,15S565.86,430.5,566.06,422Z"/><path class="cls-2" d="M326.86,356.34l6,3.33.51-21.34-4.79-2.66.06-2.4a12.63,12.63,0,0,0,5.62,1l2.6,1.44-.62,25.89,5.45,3-.07,3.08-14.85-8.22Z"/><path class="cls-2" d="M347.36,367.7l6,3.33.51-21.34L349.1,347l.06-2.4a12.63,12.63,0,0,0,5.62.95l2.6,1.44-.62,25.89,5.45,3-.07,3.08-14.85-8.23Z"/><path class="cls-2" d="M366.69,366.76c.23-9.72,3.53-13.18,8.81-10.25s8.29,9.88,8.06,19.6-3.53,13.37-8.77,10.46S366.46,376.48,366.69,366.76Zm13.57,7.52c.2-8.49-1.78-13.08-4.83-14.78s-5.24.6-5.44,9.09,1.77,13.27,4.87,15S380.06,382.78,380.26,374.28Z"/><path class="cls-2" d="M388.36,390.41l6,3.34.51-21.35-4.79-2.65.06-2.4a12.63,12.63,0,0,0,5.62.95l2.6,1.44-.61,25.89,5.44,3-.07,3.09-14.85-8.23Z"/><path class="cls-2" d="M407.69,389.48c.23-9.72,3.53-13.18,8.81-10.26s8.29,9.89,8.06,19.61-3.53,13.37-8.77,10.46S407.46,399.2,407.69,389.48ZM421.26,397c.2-8.49-1.78-13.09-4.83-14.78s-5.24.6-5.44,9.09,1.78,13.27,4.87,15S421.06,405.5,421.26,397Z"/><path class="cls-2" d="M428.19,400.84c.23-9.72,3.53-13.18,8.81-10.26s8.29,9.89,8.06,19.61-3.53,13.37-8.77,10.46S428,410.56,428.19,400.84Zm13.57,7.52c.2-8.49-1.78-13.09-4.83-14.78s-5.24.6-5.44,9.09,1.78,13.27,4.87,15S441.56,416.86,441.76,408.36Z"/><path class="cls-2" d="M449.86,424.49l6,3.34.5-21.35-4.78-2.65.05-2.41a12.53,12.53,0,0,0,5.62.95l2.6,1.44-.61,25.89,5.44,3-.07,3.09-14.85-8.23Z"/><path class="cls-2" d="M470.36,435.85l6,3.34.5-21.35-4.78-2.65.05-2.41a12.53,12.53,0,0,0,5.62,1l2.6,1.44-.61,25.89,5.45,3-.08,3.09-14.85-8.23Z"/><path class="cls-2" d="M490.86,447.21l6,3.34.5-21.35-4.78-2.65.05-2.41a12.53,12.53,0,0,0,5.62.95l2.6,1.44-.61,25.89,5.45,3-.08,3.09-14.85-8.23Z"/><path class="cls-2" d="M510.19,446.28c.23-9.72,3.53-13.18,8.81-10.26s8.3,9.89,8.07,19.61-3.54,13.36-8.78,10.46S510,456,510.19,446.28Zm13.58,7.52c.2-8.49-1.78-13.09-4.84-14.78s-5.24.59-5.44,9.09,1.78,13.27,4.87,15S523.57,462.29,523.77,453.8Z"/><path class="cls-2" d="M530.69,457.64c.23-9.72,3.53-13.19,8.81-10.26s8.3,9.89,8.07,19.61-3.54,13.36-8.78,10.46S530.46,467.36,530.69,457.64Zm13.58,7.52c.2-8.5-1.78-13.09-4.84-14.78s-5.23.59-5.43,9.09,1.77,13.27,4.86,15S544.07,473.65,544.27,465.16Z"/><path class="cls-2" d="M552.37,481.29l6,3.34.51-21.35-4.79-2.65.06-2.41a12.63,12.63,0,0,0,5.62.95l2.6,1.44-.62,25.89,5.45,3-.07,3.09-14.85-8.23Z"/><path class="cls-2" d="M325.57,410.85l6,3.34.51-21.35-4.79-2.65.06-2.41a12.63,12.63,0,0,0,5.62,1l2.6,1.44L335,416.06l5.45,3-.07,3.09-14.85-8.23Z"/><path class="cls-2" d="M344.9,409.92c.23-9.72,3.53-13.19,8.81-10.26s8.29,9.89,8.06,19.61-3.53,13.36-8.77,10.46S344.67,419.64,344.9,409.92Zm13.57,7.52c.2-8.5-1.78-13.09-4.83-14.78s-5.24.59-5.44,9.08,1.77,13.28,4.87,15S358.27,425.93,358.47,417.44Z"/><path class="cls-2" d="M365.4,421.28c.23-9.72,3.53-13.19,8.81-10.26s8.29,9.88,8.06,19.6-3.53,13.37-8.77,10.47S365.17,431,365.4,421.28ZM379,428.8c.2-8.5-1.78-13.09-4.83-14.78s-5.24.59-5.44,9.08,1.77,13.27,4.87,15S378.77,437.29,379,428.8Z"/><path class="cls-2" d="M385.9,432.64c.23-9.72,3.53-13.19,8.81-10.26s8.29,9.88,8.06,19.6-3.53,13.37-8.77,10.47S385.67,442.35,385.9,432.64Zm13.57,7.51c.2-8.49-1.78-13.08-4.83-14.78s-5.24.6-5.44,9.09,1.77,13.27,4.87,15S399.27,448.65,399.47,440.15Z"/><path class="cls-2" d="M407.57,456.29l6,3.33.5-21.34-4.79-2.66.06-2.4a12.65,12.65,0,0,0,5.62.95l2.6,1.44L417,461.5l5.44,3-.07,3.09-14.85-8.23Z"/><path class="cls-2" d="M426.9,455.35c.23-9.72,3.53-13.18,8.81-10.25s8.29,9.88,8.06,19.6-3.53,13.37-8.77,10.46S426.67,465.07,426.9,455.35Zm13.57,7.52c.2-8.49-1.78-13.08-4.83-14.78s-5.24.6-5.44,9.09,1.78,13.27,4.87,15S440.27,471.37,440.47,462.87Z"/><path class="cls-2" d="M448.57,479l6,3.34.5-21.35-4.78-2.65.05-2.41a12.57,12.57,0,0,0,5.62,1l2.6,1.44L458,484.22l5.45,3-.08,3.09-14.85-8.23Z"/><path class="cls-2" d="M467.9,478.07c.23-9.72,3.53-13.18,8.81-10.26s8.3,9.89,8.07,19.61-3.54,13.36-8.78,10.46S467.67,487.79,467.9,478.07Zm13.58,7.52c.2-8.49-1.78-13.09-4.84-14.78s-5.24.6-5.44,9.09,1.78,13.27,4.87,15S481.27,494.09,481.48,485.59Z"/><path class="cls-2" d="M488.4,489.43c.23-9.72,3.53-13.18,8.81-10.26s8.3,9.89,8.07,19.61-3.54,13.36-8.78,10.46S488.17,499.15,488.4,489.43ZM502,497c.2-8.49-1.78-13.09-4.84-14.78s-5.23.6-5.44,9.09,1.78,13.27,4.87,15S501.78,505.45,502,497Z"/><path class="cls-2" d="M510.08,513.08l6,3.34.5-21.35-4.78-2.65.06-2.41a12.49,12.49,0,0,0,5.62.95l2.59,1.44-.61,25.89,5.45,3-.07,3.09L510,516.17Z"/><path class="cls-2" d="M529.41,512.15c.23-9.72,3.52-13.18,8.8-10.26s8.3,9.89,8.07,19.61-3.54,13.36-8.78,10.46S529.18,521.87,529.41,512.15ZM543,519.67c.2-8.49-1.78-13.09-4.84-14.78s-5.23.59-5.43,9.09,1.77,13.27,4.86,15S542.78,528.16,543,519.67Z"/><path class="cls-2" d="M549.91,523.51c.23-9.72,3.53-13.18,8.81-10.26s8.29,9.89,8.06,19.61-3.54,13.36-8.77,10.46S549.68,533.23,549.91,523.51ZM563.48,531c.2-8.49-1.78-13.09-4.83-14.78s-5.24.59-5.44,9.09,1.77,13.27,4.87,15S563.28,539.52,563.48,531Z"/><path class="cls-2" d="M574.42,150.59c.23-9.72,3.53-13.18,8.81-10.26s8.29,9.89,8.06,19.61-3.53,13.36-8.77,10.46S574.19,160.31,574.42,150.59ZM588,158.11c.2-8.49-1.78-13.09-4.83-14.78s-5.24.6-5.44,9.09,1.77,13.27,4.87,15S587.79,166.6,588,158.11Z"/><path class="cls-2" d="M594.92,162c.23-9.72,3.53-13.18,8.81-10.26s8.29,9.89,8.06,19.61-3.53,13.36-8.77,10.46S594.69,171.67,594.92,162Zm13.57,7.52c.2-8.49-1.78-13.09-4.83-14.78s-5.24.59-5.44,9.09,1.78,13.27,4.87,15S608.29,178,608.49,169.47Z"/><path class="cls-2" d="M615.42,173.31c.23-9.72,3.53-13.18,8.81-10.26s8.29,9.89,8.06,19.61-3.53,13.36-8.77,10.46S615.19,183,615.42,173.31ZM629,180.83c.2-8.49-1.78-13.09-4.83-14.78s-5.24.59-5.44,9.09,1.78,13.27,4.87,15S628.79,189.32,629,180.83Z"/><path class="cls-2" d="M635.92,184.67c.23-9.72,3.53-13.18,8.81-10.26S653,184.3,652.79,194s-3.53,13.36-8.77,10.46S635.69,194.39,635.92,184.67Zm13.57,7.52c.2-8.5-1.78-13.09-4.83-14.78s-5.24.59-5.44,9.09,1.78,13.27,4.87,15S649.29,200.68,649.49,192.19Z"/><path class="cls-2" d="M657.59,208.32l6,3.34.5-21.35-4.78-2.65,0-2.41a12.53,12.53,0,0,0,5.62.95l2.6,1.44L667,213.53l5.45,3-.08,3.09-14.85-8.23Z"/><path class="cls-2" d="M678.1,219.68l6,3.34.5-21.35L679.84,199l0-2.41a12.67,12.67,0,0,0,5.62.95l2.6,1.44-.61,25.89,5.45,3-.08,3.09L678,222.77Z"/><path class="cls-2" d="M698.6,231l6,3.34.5-21.35-4.78-2.65.06-2.41a12.63,12.63,0,0,0,5.62.95l2.59,1.44L708,236.25l5.45,3-.08,3.09-14.85-8.23Z"/><path class="cls-2" d="M717.92,230.11c.23-9.72,3.53-13.19,8.81-10.26s8.3,9.88,8.07,19.6-3.54,13.37-8.78,10.47S717.69,239.83,717.92,230.11Zm13.58,7.52c.2-8.5-1.78-13.09-4.84-14.78s-5.23.59-5.44,9.08,1.78,13.27,4.87,15S731.3,246.12,731.5,237.63Z"/><path class="cls-2" d="M738.43,241.47c.23-9.72,3.52-13.19,8.81-10.26s8.29,9.88,8.06,19.6-3.54,13.37-8.77,10.47S738.2,251.18,738.43,241.47ZM752,249c.2-8.49-1.78-13.08-4.83-14.78s-5.24.6-5.44,9.09,1.77,13.27,4.87,15S751.8,257.48,752,249Z"/><path class="cls-2" d="M758.93,252.82c.23-9.72,3.53-13.18,8.81-10.25s8.29,9.88,8.06,19.6-3.54,13.37-8.77,10.46S758.7,262.54,758.93,252.82Zm13.57,7.52c.2-8.49-1.78-13.08-4.83-14.78s-5.24.6-5.44,9.09,1.77,13.27,4.87,15S772.3,268.84,772.5,260.34Z"/><path class="cls-2" d="M779.43,264.18c.23-9.72,3.53-13.18,8.81-10.25s8.29,9.88,8.06,19.6-3.53,13.37-8.77,10.46S779.2,273.9,779.43,264.18ZM793,271.7c.2-8.49-1.78-13.08-4.83-14.78s-5.24.6-5.44,9.09,1.77,13.27,4.87,15S792.8,280.2,793,271.7Z"/><path class="cls-2" d="M801.1,287.83l6,3.34.51-21.35-4.79-2.65.06-2.41a12.53,12.53,0,0,0,5.62,1l2.6,1.44-.61,25.89,5.44,3-.07,3.09L801,290.92Z"/><path class="cls-2" d="M574.3,217.39l6,3.34.5-21.35L576,196.73l.06-2.41a12.55,12.55,0,0,0,5.62,1l2.6,1.44-.61,25.89,5.44,3-.07,3.09-14.85-8.23Z"/><path class="cls-2" d="M593.63,216.46c.23-9.72,3.53-13.18,8.81-10.26s8.29,9.89,8.06,19.61-3.53,13.36-8.77,10.46S593.4,226.18,593.63,216.46ZM607.2,224c.2-8.49-1.78-13.09-4.83-14.78s-5.24.6-5.44,9.09,1.78,13.27,4.87,15S607,232.48,607.2,224Z"/><path class="cls-2" d="M614.13,227.82c.23-9.72,3.53-13.18,8.81-10.26s8.29,9.89,8.06,19.61-3.53,13.36-8.77,10.46S613.9,237.54,614.13,227.82Zm13.57,7.52c.21-8.49-1.78-13.09-4.83-14.78s-5.24.6-5.44,9.09,1.78,13.27,4.87,15S627.5,243.83,627.7,235.34Z"/><path class="cls-2" d="M635.8,251.47l6,3.34.5-21.35-4.78-2.65.05-2.41a12.53,12.53,0,0,0,5.62.95l2.6,1.44-.61,25.89,5.45,3-.08,3.09-14.85-8.23Z"/><path class="cls-2" d="M656.31,262.83l6,3.34.5-21.35-4.78-2.65.05-2.41a12.55,12.55,0,0,0,5.63,1l2.59,1.44L665.71,268l5.45,3-.08,3.09-14.85-8.23Z"/><path class="cls-2" d="M675.63,261.9c.23-9.72,3.53-13.18,8.81-10.26s8.3,9.89,8.07,19.61-3.54,13.36-8.78,10.46S675.41,271.62,675.63,261.9Zm13.58,7.52c.2-8.49-1.78-13.09-4.84-14.78s-5.23.59-5.44,9.09,1.78,13.27,4.87,15S689,277.91,689.21,269.42Z"/><path class="cls-2" d="M697.31,285.55l6,3.34.51-21.35-4.79-2.65.06-2.41a12.63,12.63,0,0,0,5.62.95l2.6,1.44-.62,25.89,5.45,3-.07,3.09-14.86-8.23Z"/><path class="cls-2" d="M716.64,284.62c.23-9.72,3.53-13.19,8.81-10.26s8.29,9.89,8.06,19.61-3.54,13.36-8.78,10.46S716.41,294.34,716.64,284.62Zm13.57,7.52c.2-8.5-1.78-13.09-4.84-14.78s-5.23.59-5.43,9.09,1.77,13.27,4.87,15S730,300.63,730.21,292.14Z"/><path class="cls-2" d="M738.31,308.27l6,3.33.51-21.34-4.79-2.65.06-2.41a12.63,12.63,0,0,0,5.62.95l2.6,1.44-.61,25.89,5.44,3-.07,3.09-14.85-8.23Z"/><path class="cls-2" d="M757.64,307.34c.23-9.72,3.53-13.19,8.81-10.26s8.29,9.89,8.06,19.6-3.54,13.37-8.77,10.47S757.41,317.06,757.64,307.34Zm13.57,7.52c.2-8.5-1.78-13.09-4.83-14.78s-5.24.59-5.44,9.08,1.77,13.27,4.87,15S771,323.35,771.21,314.86Z"/><path class="cls-2" d="M779.31,331l6,3.33.51-21.34-4.79-2.66.06-2.4a12.63,12.63,0,0,0,5.62.95l2.6,1.44-.61,25.89,5.44,3-.07,3.08-14.85-8.23Z"/><path class="cls-2" d="M798.64,330.05c.23-9.72,3.53-13.18,8.81-10.25s8.29,9.88,8.06,19.6-3.53,13.37-8.77,10.46S798.41,339.77,798.64,330.05Zm13.57,7.52c.2-8.49-1.78-13.08-4.83-14.78s-5.24.6-5.44,9.09,1.78,13.27,4.87,15S812,346.07,812.21,337.57Z"/><path class="cls-2" d="M573,271.91l6,3.33.5-21.34-4.78-2.66,0-2.4a12.67,12.67,0,0,0,5.62.95l2.6,1.44-.61,25.89,5.45,3-.08,3.09L572.94,275Z"/><path class="cls-2" d="M593.51,283.27l6,3.33.5-21.35-4.78-2.65,0-2.4a12.67,12.67,0,0,0,5.62.95l2.6,1.44-.61,25.89,5.45,3-.08,3.09-14.85-8.23Z"/><path class="cls-2" d="M612.84,282.33c.23-9.72,3.53-13.18,8.81-10.26s8.29,9.89,8.06,19.61-3.53,13.37-8.77,10.46S612.61,292.05,612.84,282.33Zm13.58,7.52c.2-8.49-1.78-13.09-4.84-14.78s-5.24.6-5.44,9.09,1.78,13.27,4.87,15S626.21,298.35,626.42,289.85Z"/><path class="cls-2" d="M634.52,306l6,3.34L641,288l-4.78-2.65.06-2.41a12.51,12.51,0,0,0,5.61,1l2.6,1.44-.61,25.89,5.45,3-.08,3.09-14.85-8.23Z"/><path class="cls-2" d="M653.84,305.05c.23-9.72,3.53-13.18,8.81-10.26s8.3,9.89,8.07,19.61-3.54,13.37-8.78,10.46S653.61,314.77,653.84,305.05Zm13.58,7.52c.2-8.49-1.78-13.09-4.84-14.78s-5.23.6-5.43,9.09,1.77,13.27,4.86,15S667.22,321.07,667.42,312.57Z"/><path class="cls-2" d="M674.35,316.41c.23-9.72,3.53-13.18,8.81-10.26s8.29,9.89,8.06,19.61-3.54,13.36-8.78,10.46S674.12,326.13,674.35,316.41Zm13.57,7.52c.2-8.49-1.78-13.09-4.84-14.78s-5.23.6-5.43,9.09,1.77,13.27,4.87,15S687.72,332.42,687.92,323.93Z"/><path class="cls-2" d="M696,340.06l6,3.34.51-21.35-4.79-2.65.06-2.41a12.49,12.49,0,0,0,5.62.95l2.6,1.44-.62,25.89,5.45,3-.07,3.09L696,343.15Z"/><path class="cls-2" d="M716.52,351.42l6,3.34.51-21.35-4.79-2.65.06-2.41a12.49,12.49,0,0,0,5.62.95l2.6,1.44-.62,25.89,5.45,3-.07,3.09-14.85-8.23Z"/><path class="cls-2" d="M737,362.78l6,3.34.51-21.35-4.79-2.65.06-2.41a12.49,12.49,0,0,0,5.62,1l2.6,1.44L746.43,368l5.44,3-.07,3.09L737,365.87Z"/><path class="cls-2" d="M756.35,361.85c.23-9.72,3.53-13.19,8.81-10.26s8.29,9.89,8.06,19.61-3.53,13.36-8.77,10.46S756.12,371.57,756.35,361.85Zm13.57,7.52c.2-8.5-1.78-13.09-4.83-14.78s-5.24.59-5.44,9.09,1.78,13.27,4.87,15S769.72,377.86,769.92,369.37Z"/><path class="cls-2" d="M776.85,373.21c.23-9.72,3.53-13.19,8.81-10.26s8.29,9.89,8.06,19.61S790.19,395.92,785,393,776.62,382.93,776.85,373.21Zm13.57,7.52c.2-8.5-1.78-13.09-4.83-14.78s-5.24.59-5.44,9.08,1.78,13.28,4.87,15S790.22,389.22,790.42,380.73Z"/><path class="cls-2" d="M798.52,396.86l6,3.33.5-21.34-4.78-2.65.05-2.41a12.67,12.67,0,0,0,5.62.95l2.6,1.44-.61,25.89,5.44,3-.07,3.08L798.45,400Z"/><path class="cls-2" d="M571.73,326.42l6,3.33.5-21.34-4.78-2.65,0-2.41a12.67,12.67,0,0,0,5.62.95l2.6,1.44-.61,25.89,5.45,3-.08,3.08-14.85-8.22Z"/><path class="cls-2" d="M591.05,325.49c.23-9.72,3.53-13.19,8.81-10.26s8.3,9.88,8.07,19.6-3.54,13.37-8.78,10.47S590.82,335.2,591.05,325.49ZM604.63,333c.2-8.49-1.78-13.08-4.84-14.77s-5.24.59-5.44,9.08,1.78,13.27,4.87,15S604.42,341.5,604.63,333Z"/><path class="cls-2" d="M611.55,336.84c.23-9.72,3.53-13.18,8.81-10.25s8.3,9.88,8.07,19.6-3.54,13.37-8.78,10.46S611.32,346.56,611.55,336.84Zm13.58,7.52c.2-8.49-1.78-13.08-4.84-14.78s-5.23.6-5.44,9.09,1.78,13.27,4.87,15S624.93,352.86,625.13,344.36Z"/><path class="cls-2" d="M632.06,348.2c.23-9.72,3.52-13.18,8.8-10.25s8.3,9.88,8.07,19.6-3.54,13.37-8.78,10.46S631.83,357.92,632.06,348.2Zm13.57,7.52c.2-8.49-1.78-13.08-4.84-14.78s-5.23.6-5.44,9.09,1.78,13.27,4.87,15S645.43,364.22,645.63,355.72Z"/><path class="cls-2" d="M653.73,371.85l6,3.34.51-21.35-4.79-2.65.06-2.41a12.53,12.53,0,0,0,5.62,1l2.6,1.44-.62,25.89,5.45,3-.07,3.09-14.86-8.23Z"/><path class="cls-2" d="M673.06,370.92c.23-9.72,3.53-13.18,8.81-10.26s8.29,9.89,8.06,19.61-3.54,13.36-8.77,10.46S672.83,380.64,673.06,370.92Zm13.57,7.52c.2-8.49-1.78-13.09-4.83-14.78s-5.24.6-5.44,9.09,1.77,13.27,4.87,15S686.43,386.94,686.63,378.44Z"/><path class="cls-2" d="M694.73,394.57l6,3.34.51-21.35-4.79-2.65.06-2.41a12.35,12.35,0,0,0,5.62.95l2.6,1.44-.61,25.89,5.44,3-.07,3.09-14.85-8.23Z"/><path class="cls-2" d="M714.06,393.64c.23-9.72,3.53-13.18,8.81-10.26s8.29,9.89,8.06,19.61-3.53,13.36-8.77,10.46S713.83,403.36,714.06,393.64Zm13.57,7.52c.2-8.49-1.78-13.09-4.83-14.78s-5.24.6-5.44,9.09,1.77,13.27,4.87,15S727.43,409.65,727.63,401.16Z"/><path class="cls-2" d="M734.56,405c.23-9.72,3.53-13.18,8.81-10.26s8.29,9.89,8.06,19.61-3.53,13.36-8.77,10.46S734.33,414.72,734.56,405Zm13.57,7.52c.2-8.49-1.78-13.09-4.83-14.78s-5.24.59-5.44,9.09,1.78,13.27,4.87,15S747.93,421,748.13,412.52Z"/><path class="cls-2" d="M756.23,428.65l6,3.34.5-21.35L758,408l.06-2.41a12.53,12.53,0,0,0,5.62.95l2.6,1.44-.61,25.89,5.44,3L771,440l-14.85-8.23Z"/><path class="cls-2" d="M775.56,427.72c.23-9.72,3.53-13.19,8.81-10.26s8.29,9.89,8.06,19.61-3.53,13.36-8.77,10.46S775.33,437.44,775.56,427.72Zm13.57,7.52c.2-8.5-1.78-13.09-4.83-14.78s-5.24.59-5.44,9.09,1.78,13.27,4.87,15S788.93,443.73,789.13,435.24Z"/><path class="cls-2" d="M796.06,439.08c.23-9.72,3.53-13.19,8.81-10.26s8.29,9.89,8.07,19.61-3.54,13.36-8.78,10.46S795.83,448.8,796.06,439.08Zm13.57,7.52c.21-8.5-1.78-13.09-4.83-14.78s-5.24.59-5.44,9.09,1.78,13.27,4.87,15S809.43,455.09,809.63,446.6Z"/><path class="cls-2" d="M570.44,380.93l6,3.34.5-21.35-4.78-2.65.05-2.41a12.69,12.69,0,0,0,5.63.95l2.59,1.44-.61,25.89,5.45,3-.08,3.09L570.36,384Z"/><path class="cls-2" d="M590.94,392.29l6,3.33.5-21.34-4.78-2.65.06-2.41a12.63,12.63,0,0,0,5.62.95l2.6,1.44-.62,25.89,5.45,3-.08,3.09-14.85-8.23Z"/><path class="cls-2" d="M610.27,391.36c.23-9.72,3.53-13.19,8.81-10.26s8.29,9.89,8.06,19.6-3.54,13.37-8.78,10.47S610,401.08,610.27,391.36Zm13.57,7.52c.2-8.5-1.78-13.09-4.84-14.78s-5.23.59-5.43,9.08,1.77,13.27,4.87,15S623.64,407.37,623.84,398.88Z"/><path class="cls-2" d="M630.77,402.71c.23-9.71,3.53-13.18,8.81-10.25s8.29,9.88,8.06,19.6-3.54,13.37-8.78,10.47S630.54,412.44,630.77,402.71Zm13.57,7.53c.2-8.5-1.78-13.09-4.84-14.78s-5.23.59-5.43,9.08,1.77,13.27,4.87,15S644.14,418.73,644.34,410.24Z"/><path class="cls-2" d="M651.27,414.07c.23-9.72,3.53-13.18,8.81-10.25s8.29,9.88,8.06,19.6-3.53,13.37-8.77,10.47S651,423.79,651.27,414.07Zm13.57,7.52c.2-8.49-1.78-13.08-4.83-14.78s-5.24.6-5.44,9.09,1.77,13.27,4.87,15S664.64,430.09,664.84,421.59Z"/><path class="cls-2" d="M672.94,437.73l6,3.33.51-21.35-4.79-2.65.06-2.4a12.63,12.63,0,0,0,5.62.95l2.6,1.44-.61,25.89,5.44,3-.07,3.09-14.85-8.23Z"/><path class="cls-2" d="M692.27,436.79c.23-9.72,3.53-13.18,8.81-10.25s8.29,9.88,8.06,19.6-3.53,13.37-8.77,10.46S692,446.51,692.27,436.79Zm13.57,7.52c.2-8.49-1.78-13.09-4.83-14.78s-5.24.6-5.44,9.09,1.78,13.27,4.87,15S705.64,452.81,705.84,444.31Z"/><path class="cls-2" d="M713.94,460.44l6,3.34.51-21.35-4.79-2.65.06-2.41a12.57,12.57,0,0,0,5.62,1l2.6,1.44-.61,25.89,5.44,3-.07,3.09-14.85-8.23Z"/><path class="cls-2" d="M734.44,471.8l6,3.34.5-21.35-4.78-2.65,0-2.41a12.57,12.57,0,0,0,5.62,1l2.6,1.44L743.85,477l5.44,3-.07,3.09-14.85-8.23Z"/><path class="cls-2" d="M754.94,483.16l6,3.34.5-21.35-4.78-2.65,0-2.41a12.39,12.39,0,0,0,5.62,1l2.6,1.44-.61,25.89,5.45,3-.08,3.09-14.85-8.23Z"/><path class="cls-2" d="M775.44,494.52l6,3.34.5-21.35-4.78-2.65,0-2.41a12.53,12.53,0,0,0,5.62.95l2.6,1.44-.61,25.89,5.45,3-.08,3.09-14.85-8.23Z"/><path class="cls-2" d="M794.77,493.59c.23-9.72,3.53-13.18,8.81-10.26s8.3,9.89,8.07,19.61-3.54,13.36-8.78,10.46S794.54,503.31,794.77,493.59Zm13.58,7.52c.2-8.49-1.78-13.09-4.84-14.78s-5.24.59-5.44,9.09,1.78,13.27,4.87,15S808.15,509.6,808.35,501.11Z"/><path class="cls-2" d="M574.3,441.15l6,3.34.5-21.35L576,420.49l.06-2.41a12.51,12.51,0,0,0,5.62.95l2.6,1.44-.61,25.89,5.44,3-.07,3.09-14.85-8.23Z"/><path class="cls-2" d="M593.63,440.22c.23-9.72,3.53-13.18,8.81-10.26s8.29,9.89,8.06,19.61S607,462.93,601.73,460,593.4,449.94,593.63,440.22Zm13.57,7.52c.2-8.49-1.78-13.09-4.83-14.78s-5.24.6-5.44,9.09,1.78,13.27,4.87,15S607,456.23,607.2,447.74Z"/><path class="cls-2" d="M614.13,451.58c.23-9.72,3.53-13.18,8.81-10.26s8.29,9.89,8.06,19.61-3.53,13.36-8.77,10.46S613.9,461.3,614.13,451.58Zm13.57,7.52c.21-8.49-1.78-13.09-4.83-14.78s-5.24.59-5.44,9.09,1.78,13.27,4.87,15S627.5,467.59,627.7,459.1Z"/><path class="cls-2" d="M635.8,475.23l6,3.34.5-21.35-4.78-2.65.05-2.41a12.53,12.53,0,0,0,5.62.95l2.6,1.44-.61,25.89,5.45,3-.08,3.09-14.85-8.23Z"/><path class="cls-2" d="M656.31,486.59l6,3.34.5-21.35-4.78-2.65.05-2.41a12.69,12.69,0,0,0,5.63,1l2.59,1.44-.61,25.89,5.45,3-.08,3.09-14.85-8.23Z"/><path class="cls-2" d="M675.63,485.66c.23-9.72,3.53-13.19,8.81-10.26s8.3,9.89,8.07,19.61-3.54,13.36-8.78,10.46S675.41,495.38,675.63,485.66Zm13.58,7.52c.2-8.5-1.78-13.09-4.84-14.78s-5.23.59-5.44,9.08,1.78,13.28,4.87,15S689,501.67,689.21,493.18Z"/><path class="cls-2" d="M697.31,509.31l6,3.33.51-21.34-4.79-2.65.06-2.41a12.63,12.63,0,0,0,5.62.95l2.6,1.44-.62,25.89,5.45,3-.07,3.08-14.86-8.22Z"/><path class="cls-2" d="M716.64,508.38c.23-9.72,3.53-13.19,8.81-10.26s8.29,9.88,8.06,19.6-3.54,13.37-8.78,10.47S716.41,518.1,716.64,508.38Zm13.57,7.52c.2-8.5-1.78-13.09-4.84-14.78s-5.23.59-5.43,9.08,1.77,13.27,4.87,15S730,524.39,730.21,515.9Z"/><path class="cls-2" d="M738.31,532l6,3.33.51-21.34-4.79-2.66.06-2.4a12.63,12.63,0,0,0,5.62,1l2.6,1.44-.61,25.89,5.44,3-.07,3.09-14.85-8.23Z"/><path class="cls-2" d="M757.64,531.09c.23-9.72,3.53-13.18,8.81-10.25s8.29,9.88,8.06,19.6-3.54,13.37-8.77,10.46S757.41,540.81,757.64,531.09Zm13.57,7.52c.2-8.49-1.78-13.08-4.83-14.78s-5.24.6-5.44,9.09,1.77,13.27,4.87,15S771,547.11,771.21,538.61Z"/><path class="cls-2" d="M779.31,554.74l6,3.34.51-21.35-4.79-2.65.06-2.4a12.63,12.63,0,0,0,5.62,1l2.6,1.44L788.72,560l5.44,3-.07,3.09-14.85-8.23Z"/><path class="cls-2" d="M798.64,553.81c.23-9.72,3.53-13.18,8.81-10.26s8.29,9.89,8.06,19.61-3.53,13.37-8.77,10.46S798.41,563.53,798.64,553.81Zm13.57,7.52c.2-8.49-1.78-13.09-4.83-14.78s-5.24.6-5.44,9.09,1.78,13.27,4.87,15S812,569.83,812.21,561.33Z"/><path class="cls-2" d="M573,495.66l6,3.34.5-21.35L574.76,475l0-2.41a12.57,12.57,0,0,0,5.62,1L583,475l-.61,25.88,5.45,3-.08,3.09-14.85-8.23Z"/><path class="cls-2" d="M593.51,507l6,3.34L600,489l-4.78-2.65,0-2.41a12.57,12.57,0,0,0,5.62,1l2.6,1.43-.61,25.89,5.45,3-.08,3.09-14.85-8.23Z"/><path class="cls-2" d="M612.84,506.09c.23-9.72,3.53-13.18,8.81-10.26s8.29,9.89,8.06,19.61-3.53,13.36-8.77,10.46S612.61,515.81,612.84,506.09Zm13.58,7.52c.2-8.49-1.78-13.09-4.84-14.78s-5.24.6-5.44,9.09,1.78,13.27,4.87,15S626.21,522.1,626.42,513.61Z"/><path class="cls-2" d="M634.52,529.74l6,3.34.5-21.35-4.78-2.65.06-2.41a12.47,12.47,0,0,0,5.61.95l2.6,1.44L643.92,535l5.45,3-.08,3.09-14.85-8.23Z"/><path class="cls-2" d="M653.84,528.81c.23-9.72,3.53-13.18,8.81-10.26s8.3,9.89,8.07,19.61-3.54,13.36-8.78,10.46S653.61,538.53,653.84,528.81Zm13.58,7.52c.2-8.49-1.78-13.09-4.84-14.78s-5.23.59-5.43,9.09,1.77,13.27,4.86,15S667.22,544.82,667.42,536.33Z"/><path class="cls-2" d="M674.35,540.17c.23-9.72,3.53-13.19,8.81-10.26s8.29,9.89,8.06,19.61-3.54,13.36-8.78,10.46S674.12,549.89,674.35,540.17Zm13.57,7.52c.2-8.5-1.78-13.09-4.84-14.78s-5.23.59-5.43,9.09,1.77,13.27,4.87,15S687.72,556.18,687.92,547.69Z"/><path class="cls-2" d="M696,563.82l6,3.34.51-21.35-4.79-2.65.06-2.41a12.49,12.49,0,0,0,5.62,1l2.6,1.44L705.42,569l5.45,3-.07,3.09L696,566.91Z"/><path class="cls-2" d="M716.52,575.18l6,3.34.51-21.35-4.79-2.65.06-2.41a12.63,12.63,0,0,0,5.62.95l2.6,1.44-.62,25.89,5.45,3-.07,3.09-14.85-8.23Z"/><path class="cls-2" d="M737,586.54l6,3.33.51-21.34-4.79-2.65.06-2.41a12.63,12.63,0,0,0,5.62.95l2.6,1.44-.61,25.89,5.44,3-.07,3.08L737,589.63Z"/><path class="cls-2" d="M756.35,585.61c.23-9.72,3.53-13.19,8.81-10.26s8.29,9.88,8.06,19.6-3.53,13.37-8.77,10.47S756.12,595.33,756.35,585.61Zm13.57,7.52c.2-8.5-1.78-13.09-4.83-14.78s-5.24.59-5.44,9.08,1.78,13.27,4.87,15S769.72,601.62,769.92,593.13Z"/><path class="cls-2" d="M776.85,597c.23-9.71,3.53-13.18,8.81-10.25s8.29,9.88,8.06,19.6-3.53,13.37-8.77,10.47S776.62,606.68,776.85,597Zm13.57,7.52c.2-8.49-1.78-13.08-4.83-14.78s-5.24.6-5.44,9.09,1.78,13.27,4.87,15S790.22,613,790.42,604.48Z"/><path class="cls-2" d="M798.52,620.62l6,3.33.5-21.35L800.27,600l.05-2.4a12.67,12.67,0,0,0,5.62,1l2.6,1.44-.61,25.89,5.44,3-.07,3.09-14.85-8.23Z"/><path class="cls-2" d="M571.73,550.18l6,3.33.5-21.35-4.78-2.65,0-2.4a12.67,12.67,0,0,0,5.62.95l2.6,1.44-.61,25.89,5.45,3-.08,3.09-14.85-8.23Z"/><path class="cls-2" d="M591.05,549.24c.23-9.72,3.53-13.18,8.81-10.25s8.3,9.88,8.07,19.6-3.54,13.37-8.78,10.46S590.82,559,591.05,549.24Zm13.58,7.52c.2-8.49-1.78-13.09-4.84-14.78s-5.24.6-5.44,9.09,1.78,13.27,4.87,15S604.42,565.26,604.63,556.76Z"/><path class="cls-2" d="M611.55,560.6c.23-9.72,3.53-13.18,8.81-10.26s8.3,9.89,8.07,19.61-3.54,13.37-8.78,10.46S611.32,570.32,611.55,560.6Zm13.58,7.52c.2-8.49-1.78-13.09-4.84-14.78s-5.23.6-5.44,9.09,1.78,13.27,4.87,15S624.93,576.62,625.13,568.12Z"/><path class="cls-2" d="M632.06,572c.23-9.72,3.52-13.18,8.8-10.26s8.3,9.89,8.07,19.61-3.54,13.36-8.78,10.46S631.83,581.68,632.06,572Zm13.57,7.52c.2-8.49-1.78-13.09-4.84-14.78s-5.23.6-5.44,9.09,1.78,13.27,4.87,15S645.43,588,645.63,579.48Z"/><path class="cls-2" d="M653.73,595.61l6,3.34.51-21.35L655.47,575l.06-2.41a12.35,12.35,0,0,0,5.62,1l2.6,1.44-.62,25.89,5.45,3-.07,3.09-14.86-8.23Z"/><path class="cls-2" d="M673.06,594.68c.23-9.72,3.53-13.18,8.81-10.26s8.29,9.89,8.06,19.61-3.54,13.36-8.77,10.46S672.83,604.4,673.06,594.68Zm13.57,7.52c.2-8.49-1.78-13.09-4.83-14.78s-5.24.6-5.44,9.09,1.77,13.27,4.87,15S686.43,610.69,686.63,602.2Z"/><path class="cls-2" d="M694.73,618.33l6,3.34.51-21.35-4.79-2.65.06-2.41a12.49,12.49,0,0,0,5.62,1l2.6,1.44-.61,25.89,5.44,3-.07,3.09-14.85-8.23Z"/><path class="cls-2" d="M714.06,617.4c.23-9.72,3.53-13.18,8.81-10.26s8.29,9.89,8.06,19.61-3.53,13.36-8.77,10.46S713.83,627.12,714.06,617.4Zm13.57,7.52c.2-8.49-1.78-13.09-4.83-14.78s-5.24.59-5.44,9.09,1.77,13.27,4.87,15S727.43,633.41,727.63,624.92Z"/><path class="cls-2" d="M734.56,628.76c.23-9.72,3.53-13.19,8.81-10.26s8.29,9.89,8.06,19.61-3.53,13.36-8.77,10.46S734.33,638.48,734.56,628.76Zm13.57,7.52c.2-8.5-1.78-13.09-4.83-14.78s-5.24.59-5.44,9.09,1.78,13.27,4.87,15S747.93,644.77,748.13,636.28Z"/><path class="cls-2" d="M756.23,652.41l6,3.34.5-21.35L758,631.75l.06-2.41a12.67,12.67,0,0,0,5.62.95l2.6,1.44-.61,25.89,5.44,3-.07,3.09-14.85-8.23Z"/><path class="cls-2" d="M775.56,651.48c.23-9.72,3.53-13.19,8.81-10.26s8.29,9.88,8.06,19.6-3.53,13.37-8.77,10.47S775.33,661.2,775.56,651.48ZM789.13,659c.2-8.5-1.78-13.09-4.83-14.78s-5.24.59-5.44,9.09,1.78,13.27,4.87,15S788.93,667.49,789.13,659Z"/><path class="cls-2" d="M796.06,662.84c.23-9.72,3.53-13.19,8.81-10.26s8.29,9.88,8.07,19.6-3.54,13.37-8.78,10.47S795.83,672.56,796.06,662.84Zm13.57,7.52c.21-8.5-1.78-13.09-4.83-14.78s-5.24.59-5.44,9.08,1.78,13.27,4.87,15S809.43,678.85,809.63,670.36Z"/><polygon class="cls-3" points="734.56 231.43 756.74 213.59 825.18 318.82 803.87 336.11 734.56 231.43"/><ellipse class="cls-3" cx="789.66" cy="267.24" rx="36.36" ry="62.98" transform="translate(-26.93 435.06) rotate(-30.31)"/><path class="cls-4" d="M834.33,293c0,18-7.32,30-30.46,43.08,0,0-5.2-12.41-14.21-17.61C765,304.26,834.33,264.72,834.33,293Z"/><path class="cls-5" d="M72,288.5c-.13-9,4.1-17.06,11.09-21.22l108.34-64.4c5.93-3.53,10.89.78,11,9.57l1.13,78.82c.12,8.32-3.8,15.82-10.28,19.68L93.73,370.1c-9.09,5.4-20.65-2.42-20.82-14.08Z"/><ellipse class="cls-6" cx="110.92" cy="302.44" rx="36.21" ry="20.29" transform="translate(-210.39 279.34) rotate(-65.75)"/><path class="cls-7" d="M121.41,312a5.13,5.13,0,0,0,2.13-4.77c-.35-4.15-2.52-5.81-4.11-5.87-.64,0-1.29.14-2,.14-.36,0-.73,0-1.09,0h0a6.13,6.13,0,0,0-.86.11l-.1,0v0l-.43.06h0l-.45-.26s-.2-.17-.22-.11a2.64,2.64,0,0,1,0-.29l.06-2.56s0,0,0,0a10,10,0,0,0,.86-2.19,10.94,10.94,0,0,0,.3-1.66c1-.69,1.27-2.54,1.4-3.76.11-1,.29-3.4-.74-2.73l.06-.42a17.87,17.87,0,0,0,.28-2.45,3.93,3.93,0,0,0-.38-2c-.09-.16-.23-.29-.41-.2a2.4,2.4,0,0,0,.11-.71,1.77,1.77,0,0,0-2.25-1.93,7,7,0,0,0-4,2,12.73,12.73,0,0,0-3.19,5.77,3,3,0,0,0-.12.91,2.24,2.24,0,0,0-.27.56,7.59,7.59,0,0,0-.38,2.47,10.59,10.59,0,0,0,.26,2.11q0,.17.06.36c-.83.74-.72,2.75-.64,3.55.12,1.12.38,2.71,1.46,2a3.21,3.21,0,0,0,1.22,2.47L108,305.2c0,.12,0,.26,0,.39a2.49,2.49,0,0,1-.17.24l-.71,1-1.6,1.9h0c-.26.3-.53.6-.79.91-.79.9-1.61,1.84-2.23,2.49a13.1,13.1,0,0,0-1.86,2.29h0a23.84,23.84,0,0,0-1.86,5.95c-.55,2.6,2,4.78,4.11,3.46Zm-15.83-13.56c0-.08,0-.17,0-.28Z"/><polygon class="cls-6" points="146.53 268.51 179.84 247.71 180.04 260.35 146.74 281.15 146.53 268.51"/><polygon class="cls-6" points="197.86 262.21 198.06 274.84 147.53 306.41 147.33 293.77 197.86 262.21"/><ellipse class="cls-8" cx="110.27" cy="303.68" rx="45.58" ry="26.25" transform="translate(-212.01 280.96) rotate(-66.01)"/><ellipse class="cls-9" cx="193.55" cy="542.35" rx="13.65" ry="27.47" transform="translate(-352.15 726.26) rotate(-88.98)"/><path class="cls-10" d="M180.1,556.57l.57-14.25c-.23-3.33-2.35-4-4.16-5.54a2.24,2.24,0,0,0-2.84,0l-1.81,1.41c-2.69,1.94-2.38,5.54-1.88,7.83l1.94,12.63C172.41,560.91,179.47,564.22,180.1,556.57Z"/><path class="cls-11" d="M170.89,537.79c0,3.39,8.24,3.39,8.24,0v-11h-8.24Z"/><path class="cls-10" d="M217.76,535l-11.47-11.35c-1.54-.89-5-1.26-7.35-.95A2.26,2.26,0,0,0,197,524.8l-.17,2.29c-.36,3.3-.06,3.78,2,4.95l12.06,7a7.71,7.71,0,0,0,6.89.29l.49-.29C220,538,219.79,536.19,217.76,535Z"/><path class="cls-11" d="M198,523.26c0,3.39,8.24,3.39,8.24,0v-11H198Z"/><path class="cls-12" d="M196.85,520.13c3.23,2.32,8.57,2.27,10.35-.43A532.49,532.49,0,0,0,215.52,418l-25.6-7.59C194.49,451.79,199.94,488.39,196.85,520.13Z"/><path class="cls-12" d="M169.93,530.81c2.61,3.88,8.5,3.9,10.24,1.1l17.25-115.63H167.68Z"/><path class="cls-10" d="M193.55,442.19,195,452.61l5.68-22.1a33,33,0,0,1-4.09.78Z"/><path class="cls-13" d="M175.91,383.66l-15.36,30.92c-.77,1.67-3.4,31.47-3.4,31.47l-7.67-4.49s2.32-32.95,2.8-34.61l9.2-32.54Z"/><rect class="cls-13" x="149.74" y="436.03" width="8.13" height="11.06" rx="3.54" transform="translate(363.93 859.27) rotate(172.5)"/><path class="cls-13" d="M216.45,367.75l9.89,16.1c1.8,3.56,5.73,10.06,7,17.44L246.82,396l-.47,3.71-17.8,7.88c1.55-8.59-3.72-9.27-6.73-12.89-5.27-6.36-10.49-12.71-10.55-13C211.19,381.3,216.45,367.75,216.45,367.75Z"/><path class="cls-14" d="M211.82,354.15l11.58,21.71c-1.89,7.55-6,11.39-11.15,13.42l-4.4-29.36Z"/><path class="cls-15" d="M216.55,415.19a135.2,135.2,0,0,1-.92-41.07c0-22.35-8.45-30.62-22.53-25.49l-5.81,1.55c-17,9.15-25.63,8.69-22.59,26.68l3,39.42C167.68,436.57,217.63,439.05,216.55,415.19Z"/><polygon class="cls-16" points="175.91 383.66 168.59 414.08 167.71 417.04 166.63 402.38 175.91 383.66"/><path class="cls-17" d="M195.31,348.8s-2.23,2.05-3.35,2.29-13.2-9.53-8.83-20.48c2.77-6.93,15.87-1.5,15.87-1.5Z"/><path class="cls-13" d="M191.32,358.36l.67.12a4.24,4.24,0,0,0,4.86-3.45L199,342.16a4.22,4.22,0,0,0-3.44-4.85l-.68-.12a4.23,4.23,0,0,0-4.85,3.45l-3.92,12.05C185.75,355,189,358,191.32,358.36Z"/><path class="cls-15" d="M177.23,378.7l-8.49,24.07c-1.21,1.87-18.58-6.92-17.1-9.79.27-.51,9.51-29.58,19.46-34.27C179.17,354.89,181.69,367.73,177.23,378.7Z"/><path class="cls-18" d="M208.73,402.88l3.27-1.15.38-.38.25-.44,24.59-12.79a1.23,1.23,0,0,1,1.09,0l9.4,5.51v-.16l1.77.71-.08.73h0a.37.37,0,0,1-.2.19l-25.59,13.31a.13.13,0,0,0-.07.1c-.53,2-1.43,3.72-3.1,2.7L210,405.12a2.48,2.48,0,0,1-1.31-2.24Z"/><path class="cls-19" d="M222.56,410.49,252,395.16c.34-.18.33-.49,0-.7l-12.52-7.34a1.43,1.43,0,0,0-1.26-.05L208.76,402.4c-.34.18-.33.49,0,.69l12.52,7.35A1.47,1.47,0,0,0,222.56,410.49Z"/><path class="cls-18" d="M221.73,400.62l7.14-3.71c.08-.05.08-.12,0-.17l-3-1.78a.32.32,0,0,0-.3,0l-7.13,3.71c-.09,0-.09.12,0,.17l3,1.77A.35.35,0,0,0,221.73,400.62Z"/><path class="cls-6" d="M225.15,393.24a3.33,3.33,0,0,1,1.48-1.85l29.24-15a.73.73,0,0,1,.62-.09h0a.27.27,0,0,1,.13.1l.82.92-.82-.07-4.39,16.2a3.36,3.36,0,0,1-1.48,1.85L223.1,409.48l-.94.91-.13.22c-.54.11-1.71-.75-1.71-.75Z"/><path class="cls-20" d="M222.38,411.27l29.24-15a3.33,3.33,0,0,0,1.48-1.85l4.44-16.37c.19-.7-.17-1-.8-.68l-29.24,15a3.33,3.33,0,0,0-1.48,1.85l-4.44,16.37C221.39,411.29,221.75,411.6,222.38,411.27Z"/><path class="cls-6" d="M238.78,395.42c-.24.87.57,1.06,1.8.43a5.58,5.58,0,0,0,2.65-2.71c.23-.87-.57-1.07-1.8-.44A5.55,5.55,0,0,0,238.78,395.42Z"/><path class="cls-21" d="M197.56,350.83a11.51,11.51,0,0,1-9.13-5.18s3.48,8.08,8.52,8.78Z"/><path class="cls-13" d="M193.42,344.43c1.28,6.15,5.63,8.17,9.71,4.52s6.36-11.59,5.08-17.73-5.63-8.17-9.72-4.52S192.14,338.28,193.42,344.43Z"/><path class="cls-13" d="M187.22,342.05c1.28,6.15,7.57,8.8,11.65,5.15s6.36-11.59,5.08-17.73-5.63-8.17-9.72-4.53S185.94,335.9,187.22,342.05Z"/><path class="cls-17" d="M196.26,329.16s-.63,11.63-10.1,12.66c0,0-9.2-7.61.14-17.33,8.23-8.56,17.56.59,17.56.59Z"/><path class="cls-22" d="M208.55,334.14a11,11,0,0,0-8.67-5.21l4-3.85S208.85,325.05,208.55,334.14Z"/><path class="cls-17" d="M190.4,335.07c2.57-2.47,7.16-1.49,13.33,2.18,6,1.41,8.06-5.42,8.06-5.42,1.59-3.55-.58-5.64-4.14-7.24l-9.25-4.15c-5.22-2.39-11.29,1.22-12.88,4.77l-.36.57C183.56,329.33,186.84,333.47,190.4,335.07Z"/><path class="cls-13" d="M185.48,343.43a2.76,2.76,0,1,0,2.14-3.27A2.76,2.76,0,0,0,185.48,343.43Z"/><path class="cls-17" d="M208.47,333.66a3.58,3.58,0,1,0,3.58-3.58A3.59,3.59,0,0,0,208.47,333.66Z"/><path class="cls-17" d="M208.74,328.66a3.58,3.58,0,1,0,3.58-3.58A3.57,3.57,0,0,0,208.74,328.66Z"/><path class="cls-17" d="M203.8,327.09a3.58,3.58,0,1,0,3.58-3.58A3.57,3.57,0,0,0,203.8,327.09Z"/><path class="cls-17" d="M203.8,335.81a3.58,3.58,0,1,0,3.58-3.58A3.58,3.58,0,0,0,203.8,335.81Z"/><path class="cls-17" d="M199.31,335.2a3.58,3.58,0,1,0,3.58-3.58A3.58,3.58,0,0,0,199.31,335.2Z"/><path class="cls-5" d="M806.89,685.76,412.65,458.14c-4.57-2.63-12.61-2.3-17.88.74L205.85,568a11.77,11.77,0,0,0-2.49,1.89L174.68,586.4c-5.27,3-5.85,7.69-1.29,10.32L567.64,824.34c4.56,2.64,12.61,2.3,17.88-.74L774.43,714.53a11.59,11.59,0,0,0,2.5-1.89l28.68-16.56C810.88,693,811.45,688.4,806.89,685.76Z"/><path class="cls-23" d="M759.08,384.51v0s0,0,0,0v-.09l0-.39,0-.32v-.08l-.06-.39c0-.12,0-.25-.07-.38v-.11l-.06-.27-.09-.38a1.21,1.21,0,0,1-.05-.18l0-.08a.56.56,0,0,1,0-.12c0-.13-.07-.26-.11-.39s-.08-.24-.13-.36h0c-.05-.13-.1-.26-.14-.39l-.15-.38s0-.07-.05-.1l0-.07-.08-.21-.17-.36a2.39,2.39,0,0,0-.13-.28l0,0,0,0c-.05-.12-.11-.23-.17-.35s-.12-.22-.17-.33a1,1,0,0,1-.08-.14l0-.06A.83.83,0,0,0,757,378l-.19-.34-.21-.34,0,0,0-.06c-.08-.11-.15-.23-.23-.35l-.22-.33-.15-.22a.61.61,0,0,1-.07-.1l-.39-.53a1.09,1.09,0,0,1-.13-.17l0,0c-.17-.22-.34-.44-.52-.65l-.08-.09-.07-.08-.19-.21-.32-.36-.12-.13-.06-.06-.12-.13-.32-.32-.25-.23,0,0,0,0-.35-.32-.36-.31h0l-.35-.29-.38-.29,0,0,0,0-.28-.2-.38-.26-.1-.07,0,0h0l-.22-.14-.38-.23-9-5.21,0,0L379.52,156.82l0,0-.55-.31h0l-1-.55-.37-.2-.39-.19-.37-.17-.4-.15-.38-.14-.41-.13h-.07l-.35-.1-.18,0-.14,0-.12,0-.42-.07h0l-.49,0h-.6l-.34,0h-.23a4.74,4.74,0,0,0-.65.16h0l-.07,0a4.09,4.09,0,0,0-.77.34s-15,10.1-14.72,10c.1,0,369.81,209.59,369.81,209.59l-.34.21s9.43,5,9.56,5.08l.37.25.38.26.38.27.16.13.59.47h0l.58.52.08.07c.18.16.36.34.53.52l.09.08c.17.17.34.35.5.53l.09.1.48.55.24.3c.1.11.19.23.29.35s.21.29.31.43l.21.28.17.25.3.44.08.12.38.62,0,.06c.13.22.25.44.37.66l0,.07c.12.22.23.43.33.65l0,.09c.11.21.2.43.29.65l0,.09c.09.22.17.44.25.65l0,.1c.07.22.15.43.21.65l0,.09c.07.22.13.44.19.66a.31.31,0,0,0,0,.08c.05.22.1.44.14.65l.06.33.06.38c0,.14,0,.27,0,.4l0,.4c0,.14,0,.28,0,.42v.33s0,.22,0,.59L743,427.52l-5.73,3.08.33.2-6.29,3.38,2.81,1.63.38.24.37.27.38.27.16.12.59.48h0l.59.52.07.06.54.52.08.09c.17.17.34.35.5.53l.09.1c.17.18.33.36.48.55l.24.29.29.36.32.43.2.28.17.25.3.44.08.12c.13.21.26.41.38.62l0,.06c.13.21.25.44.37.66l0,.07.33.65,0,.09c.1.21.19.43.29.65a.36.36,0,0,0,0,.09c.09.22.17.43.25.65l0,.1c.08.22.15.43.22.65l0,.09.18.65,0,.09c0,.22.1.44.14.65l.06.33a1.85,1.85,0,0,0,0,.23L738,615.8c0,1.05-3.21,7.65-2.36,7.15l2.37-2.16-1.35,50.67c0,1-3.21,7.65-2.36,7.15l3.23-4.19c-.58,1.46-.51,4.44-.13,4.21l11.46-8.42c1.85-1.68,3.64-3.38,3.71-6.06l5.16-220.74c0-1.06.07-2.64.07-2.64s0-.21,0-.32v-.3a.08.08,0,0,0,0,0V440l0-.39,0-.32v-.08a.77.77,0,0,1,0-.15L759,387.75c0-1.05.07-2.63.07-2.63v-.33A2.62,2.62,0,0,0,759.08,384.51Z"/><path class="cls-5" d="M271.43,919.36l-96.7-56c-5.79-3.35-5-9.2,1.65-13.05l175.37-100.9c6.7-3.85,16.83-4.26,22.62-.9l96.7,56c5.8,3.35,5.06,9.2-1.64,13L294.06,918.46C287.35,922.31,277.23,922.72,271.43,919.36Z"/><path class="cls-24" d="M447.41,795.77l-96.7-56c-5.79-3.36-15.92-3-22.62.9L158.83,838c1.5-4.14,3-8.57,3-8.57L147.09,833l.27,14.5c-.69,2.62.51,5.24,3.71,7.09l96.7,56c5.79,3.35,15.92,3,22.62-.9l175.38-100.9C452.47,805,453.2,799.13,447.41,795.77Z"/><path class="cls-25" d="M451.33,785.57l-18.66,1.66-82-47.48c-5.79-3.36-15.92-3-22.62.9l-69.7,116.29.35,55.94a26,26,0,0,0,11.65-3.15l175.38-100.9c3.83-2.21,5.7-5.06,5.52-7.73Z"/><path class="cls-26" d="M242.51,899.1c0,1.68-1.19,2.36-2.65,1.51a5.85,5.85,0,0,1-2.65-4.58c0-1.68,1.19-2.36,2.66-1.51A5.86,5.86,0,0,1,242.51,899.1Z"/><path class="cls-6" d="M247.79,894.36l-96.7-56c-5.79-3.36-5.06-9.2,1.64-13.06L328.11,724.39c6.7-3.86,16.82-4.26,22.62-.91l96.7,56c5.79,3.36,5.05,9.2-1.65,13.06L270.41,893.46C263.71,897.32,253.58,897.72,247.79,894.36Z"/><path class="cls-10" d="M247.79,891.25l-96.7-56c-5.79-3.35-5.06-9.2,1.64-13.05l175.38-100.9c6.7-3.85,16.82-4.26,22.62-.9l96.7,56c5.79,3.35,5.05,9.2-1.65,13.05L270.41,890.35C263.71,894.2,253.58,894.61,247.79,891.25Z"/><path class="cls-27" d="M402.3,763l-26.7-15.47c-1.1-.64-1-1.76.32-2.5h0a4.82,4.82,0,0,1,4.32-.17l26.7,15.47c1.1.64,1,1.76-.32,2.49h0A4.82,4.82,0,0,1,402.3,763Z"/><path class="cls-26" d="M208.06,881.59l-21.44-12.42A4,4,0,0,1,185,866h0c0-1.22.74-1.78,1.65-1.25l21.45,12.42a4,4,0,0,1,1.65,3.17h0C209.72,881.56,209,882.12,208.06,881.59Z"/><path class="cls-5" d="M333.55,730.18,186.08,815a5.14,5.14,0,0,0,0,8.91l89.37,51.78a5.13,5.13,0,0,0,5.15,0l147.47-84.84a5.15,5.15,0,0,0,0-8.92L338.7,730.19A5.17,5.17,0,0,0,333.55,730.18Z"/><path class="cls-28" d="M411.74,819.84h0a2,2,0,0,0,3.24,1.63l10.54-6.1a5.42,5.42,0,0,0,2.43-4.93h0a2,2,0,0,0-3.25-1.64l-10.53,6.11A5.41,5.41,0,0,0,411.74,819.84Z"/><path class="cls-29" d="M412.6,820.79h0a2,2,0,0,0,3.24,1.63l10.53-6.1a5.43,5.43,0,0,0,2.44-4.93h0a2,2,0,0,0-3.25-1.64L415,815.86A5.39,5.39,0,0,0,412.6,820.79Z"/><path class="cls-28" d="M392.64,831.14h0a2,2,0,0,0,3.24,1.63l10.53-6.1a5.4,5.4,0,0,0,2.44-4.93h0a2,2,0,0,0-3.25-1.63l-10.53,6.1A5.39,5.39,0,0,0,392.64,831.14Z"/><path class="cls-29" d="M393.43,831.9h0a2,2,0,0,0,3.24,1.63l10.53-6.1a5.43,5.43,0,0,0,2.44-4.93h0a2,2,0,0,0-3.25-1.64L395.86,827A5.39,5.39,0,0,0,393.43,831.9Z"/><path class="cls-30" d="M619.35,52.08c34.44,19,60.33,65,57.82,102.71-.06.78-.14,1.54-.21,2.31a43.45,43.45,0,0,1,5.21,2.45c20.64,11.37,36.15,38.92,34.64,61.54-1.45,21.86-18.27,31.12-38,21.44L540.18,165.7c-23.3-12.71-40.73-43.77-39-69.29,1.71-25.75,21.92-36.27,45.42-23.33a61,61,0,0,1,7,4.52C559.73,46.17,587.62,34.61,619.35,52.08Z"/><path class="cls-6" d="M604.89,62.23c34.44,19,60.33,65,57.82,102.71-.05.77-.13,1.54-.2,2.3a44.18,44.18,0,0,1,5.2,2.46c20.64,11.37,36.15,38.91,34.64,61.53-1.45,21.87-18.27,31.12-38,21.45l-138.6-76.83c-23.29-12.71-40.73-43.78-39-69.29,1.71-25.76,21.92-36.27,45.42-23.33a60.14,60.14,0,0,1,7,4.52C545.27,56.31,573.16,44.76,604.89,62.23Z"/><path class="cls-31" d="M598,63.79c34.44,19,60.33,65,57.82,102.71-.05.77-.13,1.54-.2,2.3a42.75,42.75,0,0,1,5.21,2.46c20.64,11.36,36.14,38.91,34.64,61.53-1.46,21.86-18.27,31.12-38,21.44L518.86,177.4c-23.29-12.71-40.72-43.77-39-69.29,1.72-25.75,21.92-36.27,45.42-23.33a64,64,0,0,1,7,4.52C538.42,57.87,566.31,46.31,598,63.79Z"/><path class="cls-32" d="M735.7,436.41c5,2.92,9,9.29,8.9,14.23l-6,224.33c-.12,4.95-4.32,6.59-9.37,3.67l-372-214.9c-5.05-2.92-9-9.28-8.9-14.23l6-224.33c.13-5,4.33-6.59,9.38-3.68Z"/><path class="cls-33" d="M736,410.25c5,2.92,8.53.05,8.4,5l-5.07,233.65c-.12,5-4.76,6.51-9.81,3.59l-372-214.9c-5.05-2.91-9-9.28-8.9-14.23l6-224.33c.14-5,4.33-6.59,9.38-3.68Z"/><path class="cls-33" d="M736,380.74c5,2.92,9,9.29,8.9,14.24l-5.57,224.41c-.12,4.94-4.76,6.51-9.81,3.59l-372-214.9c-5.05-2.92-8.71,8.1-8.57,3.15l5.67-241.72c.14-4.94,4.33-6.59,9.38-3.67Z"/><path class="cls-34" d="M735.29,408c.17-4.15-3.57-9.71-8.36-12.43L374.53,195.32c-4.78-2.72-8.78-1.56-8.95,2.58l-1.07,27.17a5.64,5.64,0,0,0-.27,1.49L359.39,415c-.16,4.14,5.25,11.75,10,14.47L717.58,627.36c4.78,2.71,8.79,1.56,8.95-2.59l1.07-27.17a5.13,5.13,0,0,0,.27-1.48Z"/><path class="cls-12" d="M730.88,693.87l-.11-14.74-14.29,9.16-3.07-7.07L355,474.27c-4.32-2.49-12.9-2.18-17.88.7L181.8,564.07v-2.48l-23.59,11.46-3.31-1.34.44,10.88a5.08,5.08,0,0,0,2.74,4.2l373,215.92c4.32,2.49,11.94,2.46,16.92-.41L726.75,699.24c2.72-1.57,4.11-3.52,4.12-5.44Z"/><path class="cls-35" d="M530.89,788.23l-373-215.35c-4.32-2.5-3.77-6.89,1.21-9.77L337.84,459.92c5-2.88,12.6-3.2,16.91-.7l373,215.35c4.31,2.49,3.77,6.89-1.22,9.77L547.81,787.53C542.82,790.41,535.21,790.72,530.89,788.23Z"/><path class="cls-36" d="M360.19,499.12a2.86,2.86,0,0,1-2.46-.29l-22.65-13.07c-.82-.47-1-1.11-.5-1.42l15-8.67a2.88,2.88,0,0,1,2.47.29L374.69,489c.82.47,1,1.11.5,1.42Z"/><path class="cls-36" d="M386.46,538.13a2.81,2.81,0,0,1-2.47-.28l-22.64-13.07c-.82-.47-1-1.1-.49-1.42l15-8.67a2.82,2.82,0,0,1,2.44.29L401,528.05c.83.47,1,1.11.51,1.42Z"/><path class="cls-36" d="M373.18,554.33a2.86,2.86,0,0,1-2.46-.28L348.07,541c-.8-.47-1-1.11-.5-1.42l15-8.67a2.84,2.84,0,0,1,2.45.29l22.65,13.07c.82.47,1,1.11.51,1.41Z"/><path class="cls-36" d="M337.25,557.46a2.89,2.89,0,0,1-2.46-.28l-22.64-13.07c-.81-.47-1-1.11-.5-1.42l15-8.67a2.89,2.89,0,0,1,2.46.28l22.64,13.07c.81.47,1,1.11.49,1.42Z"/><path class="cls-36" d="M274.93,548.37a2.86,2.86,0,0,1-2.46-.29L249.82,535c-.81-.47-1-1.1-.5-1.42l17.62-10.17a2.86,2.86,0,0,1,2.46.28l22.65,13.07c.81.47,1,1.12.5,1.42Z"/><path class="cls-36" d="M314,570.9a3.67,3.67,0,0,1-2.92-.56l-29.67-17.12c-1.06-.61-1.5-1.37-1-1.68L298,541.36a3.74,3.74,0,0,1,2.92.55L330.63,559c1.07.63,1.49,1.39,1,1.69Z"/><path class="cls-36" d="M508.88,683.54a2.78,2.78,0,0,1-2.29-.38L484,670.1c-.83-.47-1.13-1.07-.68-1.33l6.51-3.77a2.88,2.88,0,0,1,2.32.4l22.62,13.06c.82.47,1.11,1.06.67,1.32Z"/><path class="cls-36" d="M539.14,701.46a2.76,2.76,0,0,1-2.29-.39L514.22,688c-.83-.48-1.13-1.08-.68-1.34l6.51-3.76a2.8,2.8,0,0,1,2.31.39L545,696.37c.82.47,1.11,1.07.66,1.32Z"/><path class="cls-36" d="M571.22,719.55a2.8,2.8,0,0,1-2.27-.4l-22.64-13.07c-.81-.46-1.14-1.06-.7-1.31l6.27-3.62a2.83,2.83,0,0,1,2.28.4l22.63,13.06c.82.47,1.13,1.07.7,1.31Z"/><path class="cls-36" d="M551.49,694.55a2.81,2.81,0,0,1-2.27-.4l-22.64-13.06c-.81-.47-1.13-1.07-.7-1.32l6.27-3.62a2.83,2.83,0,0,1,2.28.4l22.64,13.07c.81.47,1.12,1.06.69,1.31Z"/><path class="cls-36" d="M469.75,660.78a2.91,2.91,0,0,1-2.48-.29l-147.36-85c-.8-.47-1-1.11-.5-1.43L337,563.85a2.86,2.86,0,0,1,2.46.29l147.36,85c.82.47,1,1.12.51,1.42Z"/><path class="cls-36" d="M309.93,565.28s-.14,0-.23-.06l-17.32-10c-.09-.06-.14-.12-.11-.14l1.1-.63s.14,0,.23.06l17.31,10c.1.06.15.12.12.14Z"/><path class="cls-36" d="M265.55,537.76a.17.17,0,0,1-.14,0l-7.35-4.24a0,0,0,0,1,0-.08l1.1-.63a.12.12,0,0,1,.13,0l7.35,4.24s.05.06,0,.08Z"/><path class="cls-36" d="M368.29,575.36a2.86,2.86,0,0,1-2.46-.29L343.18,562c-.8-.46-1-1.11-.5-1.42l15-8.67a2.9,2.9,0,0,1,2.46.29l22.65,13.07c.82.47,1,1.11.5,1.42Z"/><path class="cls-36" d="M399.47,593.35a2.87,2.87,0,0,1-2.45-.28L374.37,580c-.81-.47-1-1.11-.5-1.42l15-8.67a2.88,2.88,0,0,1,2.47.29L414,583.27c.81.46,1,1.1.49,1.41Z"/><path class="cls-36" d="M430.65,611.35a2.84,2.84,0,0,1-2.45-.29L405.55,598c-.81-.46-1-1.1-.49-1.41l15-8.67a2.86,2.86,0,0,1,2.46.28l22.65,13.07c.8.47,1,1.11.48,1.42Z"/><path class="cls-36" d="M461.83,629.34a2.84,2.84,0,0,1-2.45-.28L436.73,616c-.82-.48-1-1.11-.5-1.42l15-8.67a2.88,2.88,0,0,1,2.47.28l22.65,13.07c.81.47,1,1.11.49,1.42Z"/><path class="cls-36" d="M493,647.34a2.88,2.88,0,0,1-2.48-.3L467.91,634c-.81-.47-1-1.11-.5-1.42l15-8.67a2.86,2.86,0,0,1,2.46.29l22.63,13.06c.82.47,1.05,1.12.51,1.43Z"/><path class="cls-36" d="M524.2,665.32a2.86,2.86,0,0,1-2.46-.29L499.1,652c-.81-.48-1-1.12-.5-1.43l15-8.66a2.84,2.84,0,0,1,2.47.28l22.64,13.07c.81.47,1,1.11.5,1.42Z"/><path class="cls-36" d="M594.43,705.85a2.87,2.87,0,0,1-2.46-.29L530.28,670c-.82-.47-1-1.11-.5-1.42l15-8.67a2.88,2.88,0,0,1,2.47.28l61.69,35.61c.82.47,1,1.11.5,1.42Z"/><path class="cls-36" d="M404.21,572.23a2.81,2.81,0,0,1-2.45-.29l-22.65-13.07c-.81-.47-1-1.1-.49-1.41l15-8.67a2.84,2.84,0,0,1,2.45.29l22.65,13.07c.82.47,1,1.1.5,1.41Z"/><path class="cls-36" d="M435.4,590.22a2.85,2.85,0,0,1-2.46-.28l-22.65-13.08c-.81-.46-1-1.09-.49-1.41l15-8.67a2.86,2.86,0,0,1,2.44.29l22.65,13.07c.81.47,1,1.11.51,1.41Z"/><path class="cls-36" d="M466.58,608.22a2.86,2.86,0,0,1-2.46-.29l-22.64-13.07c-.8-.46-1.05-1.11-.51-1.42l15-8.67a2.9,2.9,0,0,1,2.46.29l22.64,13.07c.81.47,1,1.11.51,1.42Z"/><path class="cls-36" d="M497.75,626.21a2.84,2.84,0,0,1-2.45-.29l-22.64-13.06c-.82-.47-1.05-1.11-.5-1.42l15-8.67a2.85,2.85,0,0,1,2.45.29l22.64,13.06c.81.47,1,1.11.5,1.42Z"/><path class="cls-36" d="M529,644.2a2.86,2.86,0,0,1-2.46-.29l-22.65-13.07c-.81-.47-1-1.1-.49-1.42l15-8.67a2.84,2.84,0,0,1,2.45.29l22.65,13.07c.81.47,1,1.11.51,1.42Z"/><path class="cls-36" d="M560.12,662.18a2.8,2.8,0,0,1-2.45-.28L535,648.84c-.82-.48-1-1.11-.51-1.43l15-8.67a2.87,2.87,0,0,1,2.46.3l22.64,13.06c.81.47,1,1.11.5,1.41Z"/><path class="cls-36" d="M591.3,680.18a2.84,2.84,0,0,1-2.45-.29L566.2,666.82c-.81-.47-1-1.1-.49-1.41l15-8.67a2.85,2.85,0,0,1,2.44.28l22.65,13.08c.81.46,1,1.1.5,1.41Z"/><path class="cls-36" d="M417.5,556a2.84,2.84,0,0,1-2.47-.28l-22.65-13.07c-.8-.47-1-1.1-.48-1.42l15-8.67a2.82,2.82,0,0,1,2.44.29L432,545.94c.82.48,1,1.11.5,1.42Z"/><path class="cls-36" d="M448.67,574a2.82,2.82,0,0,1-2.46-.28l-22.64-13.07c-.82-.47-1-1.1-.5-1.42l15-8.67a2.87,2.87,0,0,1,2.46.29l22.64,13.07c.81.46,1,1.1.5,1.41Z"/><path class="cls-36" d="M479.85,592a2.89,2.89,0,0,1-2.47-.29l-22.64-13.06c-.81-.47-1-1.11-.48-1.42l15-8.67a2.85,2.85,0,0,1,2.44.28l22.64,13.07c.82.47,1,1.11.51,1.42Z"/><path class="cls-36" d="M511,610a2.86,2.86,0,0,1-2.46-.28l-22.65-13.07c-.81-.47-1-1.11-.49-1.43l15-8.66a2.84,2.84,0,0,1,2.45.29l22.65,13.07c.82.47,1,1.1.5,1.41Z"/><path class="cls-36" d="M542.22,628a2.82,2.82,0,0,1-2.45-.27l-22.65-13.07c-.82-.48-1-1.11-.49-1.43l15-8.67a2.88,2.88,0,0,1,2.45.29l22.64,13.07c.81.47,1,1.1.5,1.41Z"/><path class="cls-36" d="M573.41,646a2.84,2.84,0,0,1-2.48-.29l-22.64-13.07c-.8-.46-1-1.1-.49-1.42l15-8.67a2.91,2.91,0,0,1,2.45.29L587.9,635.9c.82.47,1.05,1.11.51,1.42Z"/><path class="cls-36" d="M604.58,664a2.82,2.82,0,0,1-2.46-.28l-22.65-13.07c-.81-.47-1-1.11-.49-1.42l15-8.67a2.84,2.84,0,0,1,2.45.29l22.65,13.07c.81.46,1,1.1.5,1.41Z"/><path class="cls-36" d="M355.28,520.14a2.84,2.84,0,0,1-2.47-.28L314.42,497.7c-.82-.47-1.05-1.11-.5-1.43l15-8.67a2.89,2.89,0,0,1,2.45.3l38.4,22.15c.82.48,1,1.11.51,1.42Z"/><path class="cls-36" d="M656.42,670a2.86,2.86,0,0,1-2.46-.29l-38.4-22.16c-.8-.46-1-1.1-.49-1.42l15-8.66a2.85,2.85,0,0,1,2.46.28L670.93,660c.81.47,1,1.11.49,1.42Z"/><path class="cls-36" d="M342,536.34a2.87,2.87,0,0,1-2.46-.29l-45.77-26.42c-.82-.47-1.05-1.1-.5-1.42l15-8.67a2.9,2.9,0,0,1,2.46.29l45.77,26.42c.83.48,1,1.11.51,1.42Z"/><path class="cls-36" d="M306.08,539.47a2.89,2.89,0,0,1-2.47-.29l-30.52-17.61c-.81-.47-1-1.11-.5-1.42l15-8.67a2.86,2.86,0,0,1,2.46.29l30.52,17.61c.82.47,1,1.11.5,1.42Z"/><path class="cls-36" d="M391.36,517.11a2.86,2.86,0,0,1-2.46-.29l-22.63-13.06c-.82-.47-1-1.11-.5-1.43l15-8.66a2.83,2.83,0,0,1,2.46.29L405.86,507c.83.48,1.05,1.12.5,1.43Z"/><path class="cls-36" d="M422.41,535a2.89,2.89,0,0,1-2.47-.29L397.3,521.65c-.81-.47-1-1.11-.5-1.42l15-8.67a2.86,2.86,0,0,1,2.46.29l22.65,13.07c.81.47,1,1.11.5,1.42Z"/><path class="cls-36" d="M453.57,553a2.84,2.84,0,0,1-2.45-.28l-22.65-13.07c-.81-.47-1-1.1-.49-1.42l15-8.66a2.82,2.82,0,0,1,2.46.28l22.65,13.07c.82.47,1,1.1.48,1.42Z"/><path class="cls-36" d="M484.77,571a2.88,2.88,0,0,1-2.47-.29l-22.63-13.06c-.82-.47-1-1.11-.5-1.42l15-8.67a2.89,2.89,0,0,1,2.47.29l22.63,13.06c.81.47,1,1.11.5,1.43Z"/><path class="cls-36" d="M515.93,589a2.84,2.84,0,0,1-2.45-.28l-22.64-13.07c-.82-.47-1-1.11-.5-1.42l15-8.67a2.88,2.88,0,0,1,2.47.29l22.64,13.07c.82.47,1,1.1.49,1.41Z"/><path class="cls-36" d="M547.13,607a2.87,2.87,0,0,1-2.45-.28L522,593.61c-.81-.46-1-1.1-.48-1.41l15-8.67a2.83,2.83,0,0,1,2.45.28l22.65,13.07c.81.47,1,1.11.49,1.42Z"/><path class="cls-36" d="M578.31,625a2.86,2.86,0,0,1-2.46-.28l-22.64-13.07c-.82-.47-1.05-1.11-.51-1.43l15-8.66a2.81,2.81,0,0,1,2.47.29l22.65,13.06c.81.47,1,1.11.49,1.43Z"/><path class="cls-36" d="M609.48,643a2.81,2.81,0,0,1-2.44-.28l-22.67-13.08c-.8-.46-1-1.1-.48-1.41l15-8.67a2.86,2.86,0,0,1,2.45.28L624,632.87c.81.47,1,1.1.49,1.41Z"/><path class="cls-36" d="M627.62,658.82a3.54,3.54,0,0,0-1.33-.44,1.92,1.92,0,0,0-1.11.15l-15,8.67a.52.52,0,0,0-.27.65,1.62,1.62,0,0,0,.75.77l5.91,3.41L596.88,683.4a.51.51,0,0,0-.25.65,1.57,1.57,0,0,0,.75.77l15.26,8.8a3.43,3.43,0,0,0,1.33.44,1.92,1.92,0,0,0,1.13-.14l35.68-20.61a.5.5,0,0,0,.25-.65,1.62,1.62,0,0,0-.77-.77Z"/><path class="cls-36" d="M302,532.16s-.14,0-.24-.07l-17.31-10c-.09-.05-.14-.11-.11-.13l1.09-.63a.37.37,0,0,1,.24.06l17.31,10c.1.06.15.12.11.14Z"/><path class="cls-37" d="M412,252.68s-41.41,9.82-64.57-43.38c-15.12,19-37.5,4.54-51.57-8.25l-13.09-13.7c-8.35,3.3-13.19,5.35-21.12,11.1l5.5,9,1.64,2.49C248.68,267.27,302.33,361,312.1,375.47c11.21,16.65,29.82,42.76,29.82,42.76s27.87-2.61,39.18-7.88S451.38,352.58,412,252.68Z"/><path class="cls-5" d="M390.89,263.78s-41.41,9.82-64.57-43.38c-23.53,29.6-64.67-22-64.67-22C210.86,249.18,279.78,369.93,291,386.58c7.67,11.4,18.82,27.24,25.09,36.09,2.94,4.16,7.42,6.42,11.66,5.89,9-1.13,24.51-3.5,32.25-7.1C371.29,416.19,441,365.51,390.89,263.78Z"/><path class="cls-12" d="M374.45,277.07s-32.84,7.78-51.21-34.41C304.58,266.13,272,225.25,272,225.25c-40.28,40.23,14.38,136,23.27,149.2,4.8,7.13,11.4,17.18,16.47,24.94,4.59,7,12.18,10.59,18.92,8.87s14.71-4,19.33-6.14C358.91,397.94,414.19,357.74,374.45,277.07Z"/><path class="cls-38" d="M374.45,277.07s-32.83,7.78-51.2-34.38l1.17,165.73a14.35,14.35,0,0,0,6.19-.16c6.69-1.71,14.71-4,19.33-6.14C358.91,397.94,414.19,357.74,374.45,277.07Z"/><polyline class="cls-39" points="289.61 307.62 318.14 348.68 351.31 306.97"/><path class="cls-40" d="M590.86,73.2c33.75,18.59,59.13,63.66,56.67,100.66,0,.76-.13,1.51-.2,2.25a43.3,43.3,0,0,1,5.1,2.41c20.23,11.14,35.43,38.14,34,60.31-1.42,21.43-17.9,30.5-37.27,21l-135.84-75.3c-22.83-12.46-39.91-42.9-38.25-67.91,1.68-25.24,21.48-35.55,44.51-22.87a61.42,61.42,0,0,1,6.85,4.43C532.43,67.4,559.77,56.07,590.86,73.2Z"/><path class="cls-37" d="M627.54,169.34l-83.26-47.83c-2.43-1.4-8.2-5.4-10.35-4.4l-1.6,1.16L511,132l16.8,22.74.4,22.34c.26,14.3,9.77,31.35,21.14,37.88l39.88,22.91,19.07,29L630.2,254a10.45,10.45,0,0,0,1.06-.83l.07-.06h0c3-2.76,4.83-7.6,4.71-14l-1-56.33C634.93,177.68,631.56,171.65,627.54,169.34Z"/><path class="cls-5" d="M595.65,265.75,530.29,230.9c-11.16-6-20.51-22.53-20.76-36.84l-1-56.33c-.09-5.06,3.07-7.48,7-5.38l91.58,48.84c3.95,2.11,7.26,8,7.35,13l1,56.33C615.73,264.86,606.81,271.7,595.65,265.75Z"/><path class="cls-6" d="M522.21,211.3h0a3.6,3.6,0,0,1-3.73-3.48l-1-56.34a3.63,3.63,0,0,1,3.6-3.64h0a3.6,3.6,0,0,1,3.73,3.48l1,56.34A3.64,3.64,0,0,1,522.21,211.3Z"/><ellipse class="cls-38" cx="599.97" cy="164.38" rx="6.45" ry="12.23" transform="matrix(0.05, -1, 1, 0.05, 403.82, 754.73)"/><path class="cls-41" d="M608.82,166c-4.43,2.52-12.14,2.51-17.24,0s-5.63-6.64-1.2-9.16,12.14-2.5,17.24,0S613.25,163.46,608.82,166Z"/><path class="cls-38" d="M556.65,142.34c-4.43,2.52-12.15,2.51-17.24,0s-5.63-6.64-1.2-9.16,12.14-2.5,17.24,0S561.08,139.82,556.65,142.34Z"/><path class="cls-41" d="M556.28,139.36c-4.43,2.52-12.15,2.51-17.24,0s-5.64-6.63-1.21-9.15,12.15-2.51,17.24,0S560.7,136.84,556.28,139.36Z"/><path class="cls-38" d="M606.44,162.78c-3,1.68-8.14,1.68-11.55,0s-3.77-4.45-.81-6.13,8.14-1.68,11.55,0S609.4,161.09,606.44,162.78Z"/><path class="cls-38" d="M553,136.12c-3,1.68-8.13,1.68-11.55,0s-3.77-4.45-.8-6.13,8.14-1.68,11.55,0S556,134.43,553,136.12Z"/><path class="cls-38" d="M592.19,159.1l-.46-25.75c.52-9.11-5.11-22.26-14.13-26.88l-9.33-4.78c-3.25-1.66-6.32-2-8.65-1a8.25,8.25,0,0,0-4.17,4.6,12.57,12.57,0,0,0-.87,5.11l.5,22c-.59,3.83-16.91,3.83-16.32,0l.32-26c1.31-8.54,6.24-15.24,13.51-18.38,6.94-3,15.38-2.44,23.15,1.55l9.33,4.78c14.8,7.58,22.53,21.07,23.37,41.34l0,24.66C607.89,163.77,591.6,162.93,592.19,159.1Z"/><path class="cls-42" d="M548.82,186.68c0-6.53,5.26-9.17,11.84-5.88s12,11.24,12,17.77-5.26,9.18-11.84,5.89S548.86,193.22,548.82,186.68Z"/><path class="cls-42" d="M559.08,185.29l.85.27c3.15,1,5.72,6,5.71,11.08l0,15.82c0,5.1-2.59,8.46-5.74,7.47l-.85-.27c-3.15-1-5.71-6-5.7-11.07l0-15.83C553.35,187.66,555.94,184.3,559.08,185.29Z"/><path class="cls-38" d="M560.08,207.78l0-10.46c-2.73-3.52-4.5-7.71-4.52-11.44,0-2.79.94-4.86,2.56-6.07-5.36-1.53-9.36,1.19-9.32,6.87,0,3.73,1.78,7.92,4.51,11.44l0,10.46c0,5.1,2.56,10.09,5.71,11.08l.85.27c1.74.55,3.31-.24,4.36-1.92C561.83,216.15,560.07,212,560.08,207.78Z"/><path class="cls-6" d="M275.12,728.69c0,1.87-1.31,2.62-2.94,1.68a6.5,6.5,0,0,1-2.94-5.08c0-1.86,1.31-2.61,2.94-1.68A6.51,6.51,0,0,1,275.12,728.69Z"/><path class="cls-43" d="M452.74,407.42s13.34-13.9,37.7-.33c18.62,10.37,8.8,8.92,31.17,17.05,13.19,4.79,33.83-14.06,66.34,2,58.86,29,79.73-17.23,105.21,11.45l-.77,123.31L452.62,426Z"/><line class="cls-44" x1="452.62" y1="426.65" x2="453.39" y2="303.46"/><line class="cls-44" x1="512.35" y1="458.84" x2="513.12" y2="335.64"/><line class="cls-44" x1="572.06" y1="492.57" x2="572.83" y2="369.37"/><line class="cls-44" x1="631.78" y1="526.26" x2="632.55" y2="403.07"/><line class="cls-44" x1="691.49" y1="561.87" x2="692.26" y2="438.68"/><path class="cls-6" d="M691.64,426.48l-7.87-4.85a3.72,3.72,0,0,1-1.58-2.87h0c0-1.05.73-1.46,1.6-.92l7.87,4.85a3.71,3.71,0,0,1,1.57,2.87h0C693.23,426.61,692.51,427,691.64,426.48Z"/><path class="cls-6" d="M690.09,568l-7.87-4.86-.07,0-5.85-3.6c-.87-.54-1.59-.13-1.6.92a3.75,3.75,0,0,0,1.58,2.87l7.87,4.85.07,0,5.85,3.6c.87.54,1.59.12,1.59-.92A3.7,3.7,0,0,0,690.09,568Z"/><path class="cls-6" d="M624.63,529.21l-7.88-4.86-.07,0-5.85-3.6c-.87-.54-1.58-.13-1.59.92a3.71,3.71,0,0,0,1.57,2.87l7.87,4.85.08,0,5.84,3.6c.87.54,1.59.12,1.6-.92A3.73,3.73,0,0,0,624.63,529.21Z"/><path class="cls-6" d="M563.47,493.41l-7.87-4.85-.07,0-5.85-3.6c-.87-.54-1.59-.13-1.59.92a3.71,3.71,0,0,0,1.57,2.87l7.87,4.85.07,0,5.85,3.6c.87.54,1.59.12,1.6-.92A3.74,3.74,0,0,0,563.47,493.41Z"/><path class="cls-6" d="M505.77,459.87,497.89,455l-.07,0-5.84-3.6c-.88-.53-1.59-.12-1.6.92a3.72,3.72,0,0,0,1.57,2.88l7.87,4.85.08,0,5.84,3.61c.87.53,1.59.12,1.6-.92A3.75,3.75,0,0,0,505.77,459.87Z"/><path class="cls-6" d="M631,394.57l-7.88-4.86a3.73,3.73,0,0,1-1.57-2.87h0c0-1,.73-1.46,1.6-.92l7.87,4.85a3.71,3.71,0,0,1,1.57,2.87h0C632.61,394.69,631.89,395.1,631,394.57Z"/><path class="cls-6" d="M571.73,363.06l-7.87-4.85a3.72,3.72,0,0,1-1.57-2.88h0c0-1,.72-1.45,1.59-.92l7.87,4.86a3.71,3.71,0,0,1,1.58,2.87h0C573.32,363.18,572.6,363.6,571.73,363.06Z"/><path class="cls-6" d="M511.59,330.82,503.72,326a3.71,3.71,0,0,1-1.57-2.87h0c0-1.05.72-1.46,1.59-.92l7.88,4.85a3.73,3.73,0,0,1,1.57,2.87h0C513.18,330.94,512.46,331.36,511.59,330.82Z"/><path class="cls-6" d="M452.35,298.31l-7.88-4.86a3.73,3.73,0,0,1-1.57-2.87h0c0-1,.73-1.46,1.6-.92l7.87,4.85a3.72,3.72,0,0,1,1.57,2.88h0C453.94,298.43,453.22,298.84,452.35,298.31Z"/><path class="cls-6" d="M444.3,425.83,436.43,421l-.07,0-5.85-3.61c-.87-.53-1.59-.12-1.6.93a3.75,3.75,0,0,0,1.58,2.87l7.87,4.85.07,0,5.85,3.6c.87.54,1.59.12,1.59-.92A3.7,3.7,0,0,0,444.3,425.83Z"/><ellipse class="cls-45" cx="769.47" cy="283.56" rx="36.36" ry="62.98" transform="translate(-37.92 427.1) rotate(-30.31)"/><path class="cls-46" d="M803.87,336.11c6.41-5.17,10.27-14.34,10.27-26.76a77.64,77.64,0,0,0-4.21-24.15l-20.82-8.58-23.93,10.59v1.27Z"/><path class="cls-5" d="M132.07,793.59l-112.58-65a8.69,8.69,0,0,1,0-15.05L134.06,647.4a19.24,19.24,0,0,1,19.22,0l115.43,66.65a8.68,8.68,0,0,1,0,15.05L157,793.59A24.9,24.9,0,0,1,132.07,793.59Z"/><path class="cls-38" d="M101.69,777.83,3.78,721.3a7.56,7.56,0,0,1,0-13.1L108,648a7.56,7.56,0,0,1,7.56,0l105,60.61a7.56,7.56,0,0,1,0,13.09l-97.16,56.1A21.71,21.71,0,0,1,101.69,777.83Z"/><polygon class="cls-38" points="0.04 688.03 0 714.87 112.16 775.88 112.16 757.81 0.04 688.03"/><path class="cls-12" d="M113.64,780.7V748.6L224.32,688v27.15a7.49,7.49,0,0,1-3.78,6.55l-95.47,55.12S119,781.09,113.64,780.7Z"/><path class="cls-47" d="M101.69,750.68,3.78,694.15a7.56,7.56,0,0,1,0-13.1l99.65-57.53a16.75,16.75,0,0,1,16.72,0l100.39,58a7.56,7.56,0,0,1,0,13.09l-97.16,56.1A21.71,21.71,0,0,1,101.69,750.68Z"/><path class="cls-38" d="M101.69,727.29,3.78,670.77a7.56,7.56,0,0,1,0-13.1L108,597.5a7.56,7.56,0,0,1,7.56,0l105,60.6a7.56,7.56,0,0,1,0,13.1l-97.16,56.09A21.66,21.66,0,0,1,101.69,727.29Z"/><polygon class="cls-38" points="0.04 637.5 0 664.34 112.16 725.34 112.16 707.27 0.04 637.5"/><path class="cls-12" d="M113.64,730.17V698.06L224.32,637.5v27.15a7.49,7.49,0,0,1-3.78,6.55l-95.47,55.12S119,730.55,113.64,730.17Z"/><path class="cls-47" d="M101.69,700.14,3.78,643.61a7.56,7.56,0,0,1,0-13.09L103.43,573a16.7,16.7,0,0,1,16.72,0l100.39,58a7.56,7.56,0,0,1,0,13.1l-97.16,56.09A21.66,21.66,0,0,1,101.69,700.14Z"/><path class="cls-38" d="M101.69,672.07,3.78,615.55a7.56,7.56,0,0,1,0-13.1L108,542.28a7.56,7.56,0,0,1,7.56,0l105,60.61a7.56,7.56,0,0,1,0,13.09l-97.16,56.09A21.66,21.66,0,0,1,101.69,672.07Z"/><polygon class="cls-38" points="0.04 582.28 0 609.12 112.16 670.13 112.16 652.05 0.04 582.28"/><path class="cls-12" d="M113.64,675v-32.1l110.68-60.57v27.15a7.49,7.49,0,0,1-3.78,6.55L125.07,671.1S119,675.34,113.64,675Z"/><path class="cls-48" d="M101.69,644.92,3.78,588.39a7.56,7.56,0,0,1,0-13.09l99.65-57.53a16.7,16.7,0,0,1,16.72,0l100.39,58a7.56,7.56,0,0,1,0,13.1l-97.16,56.09A21.66,21.66,0,0,1,101.69,644.92Z"/><path class="cls-6" d="M25.06,616.19c0,1.86-1.31,2.61-2.94,1.67a6.48,6.48,0,0,1-2.94-5.07c0-1.87,1.32-2.62,2.94-1.68A6.47,6.47,0,0,1,25.06,616.19Z"/><path class="cls-47" d="M35,622.55c0,1.87-1.32,2.62-2.94,1.68a6.47,6.47,0,0,1-2.94-5.08c0-1.86,1.31-2.62,2.94-1.68A6.5,6.5,0,0,1,35,622.55Z"/><path class="cls-6" d="M15.15,663c0,1.86-1.32,2.62-2.94,1.68a6.48,6.48,0,0,1-3-5.08c0-1.86,1.32-2.62,2.94-1.68A6.48,6.48,0,0,1,15.15,663Z"/><path class="cls-47" d="M25.06,669.38c0,1.87-1.31,2.62-2.94,1.68A6.5,6.5,0,0,1,19.18,666c0-1.86,1.32-2.61,2.94-1.67A6.45,6.45,0,0,1,25.06,669.38Z"/><path class="cls-6" d="M35,675.75c0,1.86-1.32,2.61-2.94,1.68a6.49,6.49,0,0,1-2.94-5.08c0-1.87,1.31-2.62,2.94-1.68A6.5,6.5,0,0,1,35,675.75Z"/><path class="cls-6" d="M15.15,716.22c0,1.86-1.32,2.61-2.94,1.68a6.5,6.5,0,0,1-3-5.08c0-1.87,1.32-2.62,2.94-1.68A6.48,6.48,0,0,1,15.15,716.22Z"/><path class="cls-6" d="M25.06,722.58c0,1.87-1.31,2.62-2.94,1.68a6.5,6.5,0,0,1-2.94-5.08c0-1.86,1.32-2.62,2.94-1.68A6.47,6.47,0,0,1,25.06,722.58Z"/><path class="cls-6" d="M35,728.94c0,1.87-1.32,2.62-2.94,1.68a6.45,6.45,0,0,1-2.94-5.07c0-1.87,1.31-2.62,2.94-1.68A6.5,6.5,0,0,1,35,728.94Z"/><polygon class="cls-47" points="174.63 636.49 188.84 628.29 188.84 616.85 174.63 625.05 174.63 636.49"/><polygon class="cls-47" points="195.59 624.36 209.8 616.16 209.8 604.71 195.59 612.92 195.59 624.36"/><polygon class="cls-47" points="174.63 690.87 188.84 682.67 188.84 671.22 174.63 679.43 174.63 690.87"/><polygon class="cls-47" points="195.59 678.74 209.8 670.53 209.8 659.09 195.59 667.3 195.59 678.74"/><polygon class="cls-47" points="174.63 741.24 188.84 733.03 188.84 721.59 174.63 729.79 174.63 741.24"/><polygon class="cls-47" points="195.59 729.1 209.8 720.9 209.8 709.45 195.59 717.66 195.59 729.1"/><path class="cls-49" d="M122.49,645.55S100.07,633.3,105.7,619s28.83,19.61,28.83,19.61Z"/><path class="cls-12" d="M144.38,625.09c-2,0-41.45,14.23-41.41-18.46s50.39,4.63,50.39,4.63Z"/><path class="cls-5" d="M189.82,695.88l-12.95-13.15c-1.75-1-5.7-1.53-8.4-1.2a2.58,2.58,0,0,0-2.24,2.35L166,686.5c-.46,3.76-.13,4.32,2.18,5.69l13.69,8.14c2.31,1.37,5.85,1.57,7.88.43l.57-.32C192.35,699.31,192.12,697.26,189.82,695.88Z"/><path class="cls-11" d="M167.2,683.24c0,3.88,9.42,3.88,9.42,0V670.65H167.2Z"/><path class="cls-5" d="M165,709.79l-11.22-14.66c-1.6-1.25-5.47-2.22-8.18-2.23A2.58,2.58,0,0,0,143,695l-.55,2.57c-.92,3.67-.66,4.26,1.45,5.91l12.58,9.78c2.12,1.65,5.61,2.28,7.76,1.4l.61-.24C167,713.5,167.06,711.44,165,709.79Z"/><path class="cls-11" d="M144.07,694.44c-.48,3.84,8.87,5,9.35,1.17l1.57-12.5-9.35-1.17Z"/><path class="cls-50" d="M146.23,597.45s29.18,14.93,30.39,22.7c1.07,6.83,2.25,47.23,1.57,56.73a3.8,3.8,0,0,1-2.13,3.16c-2.89,1.38-8.12,2.88-9.86-3-2.46-8.3-1.61-36.68-7.49-44.81s-35.08-19.58-35.08-19.58Z"/><path class="cls-50" d="M126.64,611s32.65,16.27,33.61,23.67c.84,6.46-3.19,43.26-4.23,52.51a3.85,3.85,0,0,1-2.43,3.15c-3,1.18-8.09,2.27-9.61-3.27-2.18-7.95-.38-34.79-6-42.69-3-4.29-10.89-9.13-24.28-15.45-6.12-2.89-10.5-14.92-3.06-15.87Z"/><path class="cls-13" d="M155,549.93l6.23,23.87c.53,2.84,1.5,7,2.2,11.84a28.47,28.47,0,0,1-5.71,21.42s-2.21-11.69-4.41-17.19a189,189,0,0,1-7-21.41C146.27,567.84,155,549.93,155,549.93Z"/><path class="cls-51" d="M145.73,533.72l14.64,25.16c-2,8-6.34,12.07-11.81,14.21L143.91,542Z"/><path class="cls-52" d="M157,555.84s-2.35,6.95-15.49,11.44"/><path class="cls-51" d="M150.12,594.1c-2.25-12.37-1.76-19.93.28-37,0-23.66-7.2-32.46-22.11-27l-6.15,1.64c-18,9.69-27.13,9.2-23.91,28.24l3.15,41.74C101.38,623.16,151.27,619.36,150.12,594.1Z"/><path class="cls-10" d="M130.63,530.23s-2.36,2.18-3.55,2.43-14-10.09-9.35-21.68c2.93-7.34,16.8-1.59,16.8-1.59Z"/><path class="cls-13" d="M126.4,540.36l.72.12a4.47,4.47,0,0,0,5.14-3.65l2.31-13.62a4.47,4.47,0,0,0-3.65-5.14l-.71-.12a4.47,4.47,0,0,0-5.14,3.65l-4.15,12.76C120.51,536.78,124,540,126.4,540.36Z"/><path class="cls-21" d="M133,532.38a12.17,12.17,0,0,1-9.66-5.48s3.68,8.56,9,9.29Z"/><path class="cls-13" d="M128.63,525.61c1.35,6.51,6,8.65,10.28,4.79s6.73-12.27,5.37-18.78-6-8.65-10.28-4.78S127.27,519.1,128.63,525.61Z"/><path class="cls-13" d="M122.06,523.09c1.36,6.51,8,9.32,12.34,5.46s6.73-12.27,5.37-18.78-6-8.65-10.28-4.79S120.71,516.58,122.06,523.09Z"/><path class="cls-10" d="M131.63,509.45s-.66,12.31-10.69,13.4c0,0-9.74-8.06.15-18.35,8.71-9.06,18.59.62,18.59.62Z"/><path class="cls-22" d="M144.65,514.72a11.68,11.68,0,0,0-9.19-5.52l4.22-4.08S145,505.1,144.65,514.72Z"/><path class="cls-10" d="M125.43,515.7c2.72-2.62,7.58-1.58,14.11,2.31,6.39,1.49,8.53-5.74,8.53-5.74,1.69-3.76-.61-6-4.37-7.66l-9.8-4.4c-5.53-2.52-12,1.29-13.64,5.05l-.38.6C118.19,509.62,121.67,514,125.43,515.7Z"/><path class="cls-13" d="M120.22,524.55a2.93,2.93,0,1,0,2.26-3.46A2.92,2.92,0,0,0,120.22,524.55Z"/><path class="cls-6" d="M133,532.38s5,6.91-2,9.87c-11,4.7-14.48-7.8-12.75-8.53l3.48-1.8a4.72,4.72,0,0,0,1.11,6.4c2.6,2.19,7.27,2.66,9.27-.77Z"/><polygon class="cls-53" points="114.2 557.08 114.2 597.6 106.72 593.21 114.2 557.08"/><path class="cls-18" d="M122.26,613.34l3.46-1.22.41-.4.26-.47,26-13.54a1.33,1.33,0,0,1,1.15,0l9.94,5.83,0-.16,1.88.75-.09.77h0a.45.45,0,0,1-.21.2L138,619.24a.19.19,0,0,0-.07.11c-.57,2.07-1.51,3.93-3.28,2.85l-11-6.49a2.65,2.65,0,0,1-1.39-2.37Z"/><path class="cls-19" d="M136.9,621.39l31.21-16.22c.36-.19.35-.52,0-.74l-13.26-7.77a1.52,1.52,0,0,0-1.33-.06l-31.2,16.23c-.36.19-.36.52,0,.74l13.26,7.77A1.52,1.52,0,0,0,136.9,621.39Z"/><path class="cls-18" d="M136,610.94l7.55-3.92c.09,0,.09-.13,0-.18L140.37,605a.36.36,0,0,0-.32,0l-7.56,3.93c-.08,0-.08.13,0,.18l3.21,1.88A.36.36,0,0,0,136,610.94Z"/><path class="cls-6" d="M139.64,603.13a3.5,3.5,0,0,1,1.57-2l30.95-15.86a.8.8,0,0,1,.66-.1h0a.49.49,0,0,1,.14.11l.86,1-.87-.07-4.65,17.15a3.54,3.54,0,0,1-1.57,2l-29.27,15-1,1-.14.23c-.57.12-1.81-.79-1.81-.79Z"/><path class="cls-31" d="M136.71,622.23s32.33-17.08,32.53-17.82l4.69-17.34c.2-.74-.18-1.06-.84-.72l-31,15.86a3.61,3.61,0,0,0-1.57,2l-4.69,17.33C135.67,622.24,136.05,622.57,136.71,622.23Z"/><path class="cls-6" d="M154.07,605.44c-.25.92.61,1.13,1.91.46a5.9,5.9,0,0,0,2.8-2.87c.25-.92-.6-1.13-1.9-.46A5.89,5.89,0,0,0,154.07,605.44Z"/><path class="cls-13" d="M113,557.08l-4.1,36.32c-.16,1.94,29.7,11.51,29.7,11.51l-2.51,10.52-30.54-7.81c-8.08-3.39-7.87-9.56-7.77-14.63l.56-31.47Z"/><path class="cls-51" d="M113.89,561.06,111.31,588c-.76,2.23-20.85-2.36-20.06-5.69.14-.58,2.21-32.82,11.23-40.18C109.8,536.1,115.67,548.65,113.89,561.06Z"/><path class="cls-52" d="M111.37,580.83s-8.32,2.16-18.64-5.42"/><path class="cls-54" d="M406.69,606.45h0c-5.69-3.29-1.7-8.88,6.33-8.87h0c9.09,0,16.44-4.22,16.41-9.47l0-2.7c0-5.25-7.42-9.52-16.51-9.54h0c-8,0-12.08-5.62-6.42-8.89h0c6.41-3.7,6.38-9.72-.07-13.44l-3.32-1.92c-6.45-3.72-16.87-3.74-23.28,0h0c-5.66,3.27-15.38.93-15.4-3.71h0c0-5.24-7.42-9.51-16.52-9.53h-4.67c-9.09,0-16.44,4.23-16.41,9.48h0c0,4.63-9.67,6.94-15.37,3.65h0c-6.45-3.72-16.87-3.74-23.27,0l-3.3,1.9c-6.41,3.7-6.38,9.72.07,13.44,5.7,3.29,1.71,8.89-6.32,8.87h0c-9.09,0-16.44,4.23-16.41,9.47v2.7c0,5.25,7.42,9.52,16.51,9.54h0c8,0,12.09,5.62,6.43,8.89h0c-6.41,3.7-6.38,9.72.07,13.44l3.32,1.92c6.44,3.72,16.87,3.74,23.27,0,5.66-3.27,15.38-.93,15.41,3.71,0,5.25,7.42,9.51,16.51,9.53h4.68c9.09,0,16.43-4.23,16.41-9.48h0c0-4.63,9.67-6.94,15.36-3.65h0c6.45,3.73,16.87,3.74,23.28,0l3.3-1.91C413.18,616.19,413.14,610.18,406.69,606.45ZM317,603.23c-16-9.24-16.09-24.17-.19-33.35s41.77-9.14,57.77.1,16.08,24.17.18,33.35S333,612.47,317,603.23Z"/><path class="cls-5" d="M417.42,574.82V552.46l-13-2.05-5.58-2.67a9.57,9.57,0,0,0-4.48-4.76l-3.31-1.92a19.62,19.62,0,0,0-2.26-1.08l9.9-.45.52-15-43.18-5.09-4.16-10-37,1.13,5.18,9.7-22,1.66-2,2.59c-4-.26-27.81-2-27.81-2V542l8.72-1.52c-.27.14-.54.27-.8.42l-3.3,1.9a9.32,9.32,0,0,0-4.5,5l-18.16,1.19v24.32l.16,0a6.14,6.14,0,0,0-.16,1.28l0,2.7c0,5.25,7.42,9.52,16.51,9.54h0c.54,0,1.06,0,1.57.08l.07,15.32h0c-.08,2.5,1.53,5,4.84,6.93l3.32,1.92c6.45,3.72,16.87,3.74,23.28,0,5.66-3.27,15.38-.93,15.41,3.71,0,5.25,7.42,9.51,16.5,9.53h4.68c9.09,0,16.44-4.23,16.41-9.48h0c0-4.63,9.67-6.94,15.37-3.65h0c6.45,3.73,16.87,3.74,23.28,0l3.29-1.9c4-2.3,5.49-5.51,4.48-8.5h0V587.12A14.3,14.3,0,0,1,401,587c8.8,0,15.94-4,16.36-9h0v-.26a1.79,1.79,0,0,0,0-.23v-2.73ZM335,580.38c-16,0-29-7.49-29-16.73s13-16.72,29-16.72,29,7.49,29,16.72S351,580.38,335,580.38Z"/><path class="cls-6" d="M394.7,570.25h0c-5.7-3.29-1.7-8.88,6.33-8.87h0c9.09,0,16.43-4.22,16.4-9.47v-2.7c0-5.25-7.42-9.52-16.51-9.54h0c-8,0-12.08-5.62-6.42-8.89h0c6.4-3.7,6.37-9.72-.08-13.44l-3.31-1.92c-6.45-3.72-16.87-3.74-23.28,0h0c-5.66,3.27-15.38.93-15.41-3.7h0c0-5.25-7.42-9.52-16.51-9.54h-4.68c-9.09,0-16.43,4.23-16.4,9.48h0c0,4.63-9.68,6.94-15.37,3.65h0c-6.45-3.72-16.87-3.74-23.28,0l-3.3,1.9c-6.4,3.7-6.37,9.72.08,13.44,5.69,3.29,1.7,8.89-6.33,8.87h0c-9.09,0-16.43,4.23-16.41,9.47l0,2.71c0,5.24,7.42,9.51,16.51,9.53h0c8,0,12.08,5.63,6.42,8.89h0c-6.41,3.7-6.37,9.72.07,13.44l3.32,1.92c6.45,3.72,16.87,3.74,23.28,0,5.66-3.27,15.38-.93,15.41,3.71,0,5.25,7.42,9.51,16.51,9.53h4.67c9.09,0,16.44-4.23,16.41-9.47h0c0-4.64,9.67-7,15.37-3.66h0c6.45,3.73,16.87,3.74,23.28.05l3.29-1.91C401.18,580,401.15,574,394.7,570.25ZM305,567c-16-9.24-16.08-24.17-.18-33.35s41.77-9.14,57.77.1,16.08,24.17.18,33.35S321,576.27,305,567Z"/><path class="cls-54" d="M540.45,627.75h0c-5-2.91-1.51-7.87,5.6-7.86h0c8,0,14.55-3.73,14.52-8.38v-2.39c0-4.64-6.57-8.42-14.61-8.44h0c-7.11,0-10.7-5-5.69-7.87h0c5.67-3.27,5.64-8.6-.06-11.89l-2.94-1.7c-5.7-3.29-14.93-3.31-20.6,0h0c-5,2.89-13.61.82-13.63-3.29h0c0-4.64-6.57-8.42-14.62-8.43h-4.14c-8,0-14.54,3.74-14.52,8.38h0c0,4.11-8.56,6.15-13.6,3.24h0c-5.7-3.3-14.93-3.32-20.6,0l-2.92,1.68c-5.67,3.28-5.64,8.6.07,11.9,5,2.91,1.51,7.86-5.6,7.85h0c-8,0-14.55,3.74-14.52,8.38v2.39c0,4.65,6.57,8.43,14.61,8.44h0c7.11,0,10.7,5,5.69,7.87h0c-5.67,3.28-5.64,8.6.06,11.9l2.94,1.69c5.71,3.3,14.93,3.31,20.6,0,5-2.89,13.61-.82,13.63,3.28,0,4.64,6.57,8.42,14.62,8.44h4.14c8,0,14.54-3.74,14.52-8.38h0c0-4.1,8.56-6.14,13.6-3.23h0c5.7,3.29,14.93,3.31,20.6,0l2.92-1.69C546.19,636.37,546.16,631,540.45,627.75Zm-79.36-2.86c-14.16-8.17-14.23-21.39-.16-29.51s37-8.09,51.13.09,14.23,21.39.16,29.52S475.25,633.07,461.09,624.89Z"/><path class="cls-5" d="M545.67,601.11V583.6L535.53,582l-4.36-2.09a7.58,7.58,0,0,0-3.51-3.72l-2.6-1.5a14.3,14.3,0,0,0-1.76-.85l7.74-.35.41-11.76-33.8-4-3.26-7.85-29,.89,4.06,7.59-17.24,1.3-1.59,2c-3.11-.21-21.77-1.58-21.77-1.58v15.26l6.83-1.19c-.21.11-.42.21-.62.33L432.5,576a7.3,7.3,0,0,0-3.53,3.88l-14.21.93v19l.13,0a4.22,4.22,0,0,0-.13,1V603c0,4.11,5.81,7.45,12.93,7.46h0q.63,0,1.23.06l.06,12h0c-.06,2,1.2,3.93,3.8,5.43l2.59,1.5c5.05,2.91,13.21,2.93,18.23,0,4.43-2.56,12-.73,12.06,2.9,0,4.11,5.81,7.45,12.92,7.47h3.67c7.12,0,12.87-3.31,12.84-7.42h0c0-3.62,7.58-5.43,12-2.85h0c5,2.91,13.2,2.93,18.22,0l2.58-1.49c3.13-1.81,4.29-4.32,3.51-6.66h0V610.74a12.24,12.24,0,0,1,1.39-.08c6.89,0,12.48-3.1,12.81-7h0v-.2c0-.07,0-.12,0-.19v-2.13Zm-64.56,4.35c-12.53,0-22.69-5.86-22.69-13.09s10.16-13.1,22.69-13.1,22.68,5.86,22.68,13.1S493.64,605.46,481.11,605.46Z"/><path class="cls-6" d="M527.88,597.53h0c-4.46-2.57-1.33-6.95,5-6.94h0c7.11,0,12.86-3.31,12.84-7.42v-2.11c0-4.11-5.81-7.45-12.93-7.47h0c-6.28,0-9.45-4.4-5-7h0c5-2.9,5-7.61-.06-10.52l-2.6-1.5c-5-2.92-13.21-2.93-18.22,0h0c-4.43,2.56-12,.73-12.06-2.9h0c0-4.11-5.81-7.45-12.93-7.46h-3.66c-7.12,0-12.87,3.31-12.85,7.42h0c0,3.63-7.57,5.43-12,2.86h0c-5.05-2.92-13.21-2.93-18.22,0l-2.59,1.49c-5,2.9-5,7.61.06,10.53,4.46,2.57,1.34,6.95-4.95,6.94h0c-7.12,0-12.87,3.31-12.85,7.42v2.11c0,4.11,5.81,7.45,12.93,7.47h0c6.29,0,9.46,4.4,5,7h0c-5,2.9-5,7.61.06,10.52l2.59,1.5c5.05,2.92,13.21,2.93,18.23,0,4.43-2.56,12-.73,12.06,2.9,0,4.11,5.81,7.45,12.92,7.46h3.67c7.12,0,12.87-3.31,12.84-7.42h0c0-3.63,7.58-5.43,12-2.86h0c5,2.92,13.2,2.93,18.22,0l2.58-1.5C533,605.16,532.93,600.45,527.88,597.53ZM457.68,595c-12.53-7.23-12.59-18.92-.14-26.11s32.7-7.15,45.23.08,12.59,18.92.14,26.11S470.21,602.24,457.68,595Z"/><path class="cls-36" d="M282.1,852.44,383,794.2c5.95-3.44,5.2-9.5-1.68-13.46l-33.82-19.53c-6.87-4-17.37-4.41-23.32-1L223.28,818.48c-5.95,3.44-5.2,9.49,1.67,13.46l33.83,19.53C265.65,855.44,276.14,855.87,282.1,852.44Z"/><polygon class="cls-55" points="346.86 699.32 375.76 682.68 347.04 666.11 317.95 682.68 346.86 699.32"/><polygon class="cls-51" points="375.76 682.68 375.76 719.1 375.76 780.28 346.88 796.91 346.86 699.32 375.76 682.68"/><polygon class="cls-56" points="346.86 699.32 346.88 796.91 317.95 780.28 317.95 682.68 346.86 699.32"/><polygon class="cls-50" points="310.17 758.65 338.86 741.97 310.24 725.44 281.44 742.07 310.17 758.65"/><polygon class="cls-57" points="310.17 819.84 338.71 803.21 338.71 742.02 310.17 758.65 310.17 819.84"/><polygon class="cls-34" points="310.17 819.84 281.62 803.21 281.62 742.02 310.17 758.65 310.17 819.84"/><polygon class="cls-6" points="271.6 804.72 300.4 788.09 271.78 771.57 242.69 788.16 271.6 804.72"/><polygon class="cls-23" points="272.1 843.62 242.69 825.99 242.69 788.16 272.1 804.79 272.1 843.62"/><polygon class="cls-6" points="271.56 843.55 271.56 804.72 300.36 788.09 300.36 826.92 271.56 843.55"/><ellipse class="cls-9" cx="595.73" cy="669.52" rx="31.25" ry="15.53" transform="translate(-11.78 10.67) rotate(-1.02)"/><path class="cls-51" d="M588.66,498.07s12.12,5.09,33.77-24.1c4.38-5.91,10-26.91,10-26.91l-5.22-2.33s-7.87,17.91-14.31,23.68c-8.64,7.74-32.32,18.18-33.35,22.09S588.66,498.07,588.66,498.07Z"/><path class="cls-10" d="M572.79,659.15l6.8-.85c4.55-2.06,6.68-3.61,8.7-2.44l.57.33c2,1.17,1.77,3.23-.56,4.58l-10,7.94A6.58,6.58,0,0,1,571,668s-1.12-1-.32-5.26C571.08,660.32,570.92,660.23,572.79,659.15Z"/><path class="cls-13" d="M580.83,659.45c-.54,4.69-9.15,4.69-9.15,1.12l4.77-108.45,28.71-8.1Z"/><path class="cls-10" d="M601.54,669.52l6.73,1.26c5-.57,7.45-1.39,9,.34l.44.49c1.57,1.74.7,3.62-1.94,4.19l-11.95,4.5a6.58,6.58,0,0,1-6.78-2.93s-.76-1.3,1.3-5.1C599.55,670.1,599.42,670,601.54,669.52Z"/><path class="cls-13" d="M607,672.39c-1.5,3.8-8.07,3-8-.15,3.07-37.58-4-73.07-13.12-107.6l27.58-3C614.61,602.07,614.24,636.7,607,672.39Z"/><path class="cls-10" d="M611.82,551.88l9.59,52.63s-23.83,23.62-51.09,0l3.07-49.42Z"/><ellipse class="cls-13" cx="594.52" cy="473.33" rx="8.81" ry="15.54" transform="translate(-55.79 80.16) rotate(-7.37)"/><path class="cls-13" d="M610.2,479.51c-2.05,7.14-9.71,9.73-14.21,5.06s-6.49-14.24-4.44-21.38,7.36-9.16,11.86-4.5S612.25,472.36,610.2,479.51Z"/><path class="cls-13" d="M592.87,500.13l-.76-.17a4.84,4.84,0,0,1-3.66-5.76l3.25-14.58a4.84,4.84,0,0,1,5.76-3.66l.76.17a4.84,4.84,0,0,1,3.66,5.76l-1.07,14.47C600.24,499,595.46,500.71,592.87,500.13Z"/><path class="cls-33" d="M586.76,480.53s-.89,5,7.76,5.44c6.92.38,4.86-12.14,11.72-13.25,7.55-1.24,8.91-10.56,5.94-14.14s-11.28-5.44-17.3-2.79S576.21,460.38,586.76,480.53Z"/><path class="cls-13" d="M606.27,476.59a3.27,3.27,0,1,1-2.25-4A3.28,3.28,0,0,1,606.27,476.59Z"/><path class="cls-51" d="M573.26,554.53c2.45-13.39-.18-24,0-38.21,0-25.59-1.22-31.84,12.31-27.94l3.81,1a26.92,26.92,0,0,1,5.29,2c17.84,9.19,22.6,12,21.82,22.69.08,17.56-8.1,21.14-3.75,36.51C609.09,562.77,577.34,563.22,573.26,554.53Z"/><path class="cls-21" d="M601.51,486.92l-.78-1.79a4.93,4.93,0,0,0,4,1.05A6.33,6.33,0,0,1,601.51,486.92Z"/><ellipse class="cls-6" cx="587.42" cy="466.49" rx="6.23" ry="7.24"/><path class="cls-33" d="M587.26,464.23a3.68,3.68,0,0,0-6.75-2.2,14.07,14.07,0,0,0-1.67,4.45c-2.52,11.13-21.28,9.52-12.08,29.11,0,0-8.37,12.86,7.19,18.27,8,2.77,7.78-17.73,7.78-17.73s3.18-9.43,6.25-16.82a13.73,13.73,0,0,0,0-10.85A8.44,8.44,0,0,1,587.26,464.23Z"/><path class="cls-6" d="M589.3,487.63a2.15,2.15,0,0,0-2.6,2.45,5.91,5.91,0,0,0,4.35,4.69c4.22,1.43,8.86.66,11.08.13a.61.61,0,0,0,.18-1.11C599.79,492.24,593.77,488.71,589.3,487.63Z"/><polygon class="cls-6" points="641.74 514.96 621.41 503.18 633.38 468.2 653.7 479.98 641.74 514.96"/><path class="cls-51" d="M600.41,510.36s17.49,42.53,36.58,22,12.39-34.94,12.39-34.94l-2.56-.69s-7.77,25.73-16,23.18-19.49-18.43-23.47-19.18S600.41,510.36,600.41,510.36Z"/><rect class="cls-13" x="626.78" y="434.72" width="9.1" height="12.37" rx="3.95" transform="translate(998.15 1117.97) rotate(-153.38)"/><path class="cls-13" d="M648.92,500.43h0a3.34,3.34,0,0,1-3.33-3.33v-3.4a3.34,3.34,0,0,1,3.33-3.33h0a3.34,3.34,0,0,1,3.33,3.33v3.4A3.34,3.34,0,0,1,648.92,500.43Z"/><path class="cls-7" d="M637.35,481l-3.47-2a2,2,0,0,1-.83-2.21h0a1.14,1.14,0,0,1,1.72-.73l3.48,2a2,2,0,0,1,.83,2.21h0A1.15,1.15,0,0,1,637.35,481Z"/><path class="cls-58" d="M640.59,488.84l-5.24-3a1.58,1.58,0,0,1-.66-1.75h0a.91.91,0,0,1,1.37-.58l5.24,3a1.58,1.58,0,0,1,.66,1.75h0A.91.91,0,0,1,640.59,488.84Z"/><path class="cls-58" d="M643.36,496.7l-9.63-5.56a1.58,1.58,0,0,1-.66-1.75h0a.91.91,0,0,1,1.37-.58l9.63,5.57a1.57,1.57,0,0,1,.66,1.74h0A.91.91,0,0,1,643.36,496.7Z"/><path class="cls-58" d="M637.35,499.49l-5.24-3a1.59,1.59,0,0,1-.66-1.75h0a.91.91,0,0,1,1.36-.58l5.25,3a1.56,1.56,0,0,1,.65,1.74h0A.89.89,0,0,1,637.35,499.49Z"/><path class="cls-7" d="M631.29,501.92l-3.59-2.07a1.58,1.58,0,0,1-.65-1.75h0a.9.9,0,0,1,1.36-.58L632,499.6a1.57,1.57,0,0,1,.66,1.74h0A.91.91,0,0,1,631.29,501.92Z"/><path class="cls-5" d="M844.75,459.11c.13-9.21-4.14-17.41-11.19-21.52L724.3,373.9c-6-3.49-11,1-11.1,10.06l-1.09,80.88c-.11,8.54,3.84,16.15,10.38,20l100.36,58.5c9.15,5.34,20.81-2.94,21-14.91Z"/><path class="cls-59" d="M813.26,520l-77.11-44.52c-3.83-2.21-7-8.19-7-13.3v-10c0-5.11,3.13-7.47,7-5.26l77.11,44.52c3.83,2.21,7,8.19,7,13.3v10.05C820.22,519.82,817.09,522.18,813.26,520Z"/><path class="cls-59" d="M813.26,475.25l-77.11-44.52c-3.83-2.21-7-8.2-7-13.3V407.37c0-5.1,3.13-7.47,7-5.26l77.11,44.52c3.83,2.21,7,8.2,7,13.3V470C820.22,475.09,817.09,477.46,813.26,475.25Z"/><polygon class="cls-6" points="750.8 470.9 748.63 469.7 750.17 468.86 748.66 466.34 747.12 467.18 747.13 464.8 744.98 463.6 744.96 465.99 743.44 463.45 741.9 464.29 743.42 466.82 741.25 465.62 741.23 467.99 743.4 469.19 741.86 470.03 743.37 472.55 744.92 471.71 744.9 474.1 747.06 475.29 747.07 472.9 748.6 475.44 750.13 474.61 748.61 472.07 750.78 473.27 750.8 470.9"/><polygon class="cls-6" points="765.02 478.76 762.85 477.56 764.39 476.73 762.88 474.2 761.33 475.04 761.35 472.66 759.19 471.46 759.18 473.85 757.65 471.31 756.12 472.15 757.64 474.68 755.47 473.48 755.45 475.85 757.62 477.05 756.07 477.89 757.59 480.41 759.13 479.57 759.12 481.96 761.27 483.15 761.29 480.77 762.81 483.3 764.35 482.47 762.83 479.93 765 481.13 765.02 478.76"/><polygon class="cls-6" points="779.23 486.63 777.06 485.43 778.61 484.59 777.1 482.07 775.55 482.91 775.57 480.52 773.41 479.33 773.39 481.71 771.87 479.18 770.33 480.01 771.86 482.55 769.69 481.35 769.67 483.72 771.84 484.92 770.29 485.75 771.8 488.27 773.35 487.44 773.33 489.82 775.49 491.01 775.51 488.63 777.03 491.17 778.57 490.33 777.04 487.8 779.22 489 779.23 486.63"/><polygon class="cls-6" points="793.45 494.49 791.28 493.29 792.83 492.45 791.32 489.93 789.77 490.77 789.79 488.38 787.63 487.19 787.61 489.58 786.09 487.04 784.55 487.87 786.07 490.41 783.9 489.21 783.89 491.58 786.06 492.78 784.51 493.62 786.02 496.14 787.57 495.3 787.55 497.69 789.71 498.88 789.73 496.49 791.25 499.03 792.79 498.19 791.26 495.66 793.43 496.86 793.45 494.49"/><polygon class="cls-6" points="807.67 502.35 805.5 501.15 807.04 500.31 805.53 497.79 803.99 498.63 804 496.25 801.85 495.05 801.83 497.44 800.31 494.9 798.77 495.74 800.29 498.27 798.12 497.07 798.1 499.44 800.27 500.64 798.73 501.48 800.24 504 801.79 503.16 801.77 505.55 803.93 506.74 803.94 504.35 805.47 506.89 807 506.06 805.48 503.52 807.65 504.72 807.67 502.35"/><path class="cls-6" d="M808.31,460.2,741.1,421.39a6.45,6.45,0,0,1-2.69-5.14h0c0-2,1.21-2.88,2.69-2L808.31,453a6.48,6.48,0,0,1,2.69,5.14h0C811,460.13,809.79,461.05,808.31,460.2Z"/><path class="cls-56" d="M859.05,462.13c2.06-10.8-3.58-24.88-12.6-31.44-4.14-3-8.28-3.92-11.74-3h0a9.22,9.22,0,0,0-1.36.5l-8.23,3.31,4,.15a16.45,16.45,0,0,0-2.72,6.66c-2.06,10.79,3.58,24.87,12.59,31.44a18.23,18.23,0,0,0,5.48,2.79l.71,2.36,5.74-2.23c.31-.1.62-.21.92-.33l.1,0h0C855.42,470.86,858.05,467.37,859.05,462.13Z"/><path class="cls-51" d="M851.54,465.08c-2.06,10.8-11,14.23-20.06,7.66s-14.65-20.64-12.59-31.44,11-14.22,20.05-7.66S853.6,454.28,851.54,465.08Z"/><path class="cls-6" d="M822,441.61l5.82,19.74.84,2.87c.71,2.39,3.86,4.08,6.12,2.48l10.59-7.47c1.77-1.25,2.78-3.69,1.49-5.69-1.14-1.77-3.79-2.84-5.7-1.5l-10.58,7.47,6.11,2.49-5.81-19.73-.85-2.87a4.16,4.16,0,0,0-8,2.21Z"/><polygon class="cls-60" points="552.28 925.25 481.91 884.63 551.84 844.25 622.9 884.79 552.28 925.25"/><polygon class="cls-5" points="552.28 861.55 481.91 820.92 551.84 780.55 622.9 821.09 552.28 861.55"/><polygon class="cls-61" points="552.28 861.55 552.39 913.25 482.02 872.63 482.02 820.92 552.28 861.55"/><polygon class="cls-62" points="552.28 861.55 622.9 821.09 622.9 870.35 551.05 913.43 552.28 861.55"/><polygon class="cls-6" points="540.47 896.44 526.41 888.26 526.41 877.73 540.47 885.91 540.47 896.44"/><polygon class="cls-6" points="521.8 885.91 507.75 877.73 507.75 858.39 521.8 866.57 521.8 885.91"/><polygon class="cls-6" points="489.08 867.2 503.14 875.38 503.14 843.08 489.08 834.9 489.08 867.2"/><path class="cls-63" d="M583.14,808.76c-14.37-8.62-37.89-9-52.54-.87s-14.87,21.71-.5,30.33,37.63,9,52.55,1C599.05,830.5,597.51,817.38,583.14,808.76Z"/><path class="cls-51" d="M576.63,805.79c-13.64-8.18-36-8.55-49.89-.83s-14.13,20.62-.48,28.81,35.74,8.56,49.91,1C591.74,826.44,590.28,814,576.63,805.79Z"/><path class="cls-55" d="M576.15,795c-13.64-8.19-36-8.56-49.89-.83s-14.12,20.62-.48,28.81,35.74,8.56,49.91,1C591.26,815.65,589.8,803.18,576.15,795Z"/><polyline class="cls-64" points="546.19 798.7 540.5 812.04 573.4 807.9"/><path class="cls-51" d="M843,283.56c-3.87-22.8-16.67-46.94-33.52-64l-20.12,14.34,7.3,13.94-11.33,25,27.06,5,10.49,20Z"/><path class="cls-55" d="M765.18,287.21l57.67,10.69c-3.87-22.8-16.67-46.93-33.52-64Z"/></g></g></g></svg>